<svg xmlns="http://www.w3.org/2000/svg" xmlns:xlink="http://www.w3.org/1999/xlink" width="1366" height="3300" viewBox="0 0 1366 3300">
  <defs>
    <clipPath id="clip-path">
      <rect id="ContentLayer" width="1366" height="3300" fill="#fff" stroke="#707070" stroke-width="1" opacity="0"/>
    </clipPath>
  </defs>
  <g id="artists_iconbg" clip-path="url(#clip-path)">
    <g id="IconBg" transform="translate(-164.146 488.625)" opacity="0.4">
      <ellipse id="Ellipse_400" data-name="Ellipse 400" cx="53.5" cy="50.578" rx="53.5" ry="50.578" transform="translate(83.715 162)" fill="#e9008f" opacity="0.5"/>
      <circle id="Ellipse_403" data-name="Ellipse 403" cx="66" cy="66" r="66" transform="translate(1435.146 1469.936)" fill="#e9008f"/>
      <circle id="Ellipse_443" data-name="Ellipse 443" cx="46.465" cy="46.465" r="46.465" transform="translate(137.215 2306.326)" fill="#e9008f"/>
      <ellipse id="Ellipse_408" data-name="Ellipse 408" cx="77.5" cy="77.5" rx="77.5" ry="77.5" transform="translate(1475.517 385.975)" fill="#e9008f"/>
      <ellipse id="Ellipse_406" data-name="Ellipse 406" cx="81.907" cy="83.047" rx="81.907" ry="83.047" transform="translate(1448.239 2599.327)" fill="#e9008f"/>
      <ellipse id="Ellipse_404" data-name="Ellipse 404" cx="147.648" cy="147.648" rx="147.648" ry="147.648" transform="translate(57.6 842.084)" fill="#e9008f" opacity="0.3"/>
      <path id="photo" d="M121.166,83.852a61.112,61.112,0,0,0-15.593-9.76,5.1,5.1,0,1,0-4.139,9.318,51.056,51.056,0,0,1,13,8.1,20.333,20.333,0,0,1,6.887,15.281v9.432a5.105,5.105,0,0,1-5.1,5.1H16.295a5.105,5.105,0,0,1-5.1-5.1v-9.432a20.333,20.333,0,0,1,6.887-15.281c5.152-4.527,20.16-15.055,48.177-15.055a37.772,37.772,0,1,0-22.981-7.829c-16.4,3.605-26.6,10.543-31.925,15.224A30.53,30.53,0,0,0,1,106.793v9.432A15.313,15.313,0,0,0,16.295,131.52h99.93a15.313,15.313,0,0,0,15.295-15.295v-9.432a30.53,30.53,0,0,0-10.354-22.941ZM38.728,38.728A27.532,27.532,0,1,1,66.26,66.26,27.564,27.564,0,0,1,38.728,38.728Z" transform="translate(105.273 486.36)" fill="#e9008f"/>
      <path id="photo-2" data-name="photo" d="M182.8,126.348a92.457,92.457,0,0,0-23.591-14.766,7.713,7.713,0,1,0-6.262,14.1,77.242,77.242,0,0,1,19.672,12.257,30.762,30.762,0,0,1,10.419,23.12v14.27a7.724,7.724,0,0,1-7.713,7.713H24.14a7.724,7.724,0,0,1-7.713-7.713v-14.27a30.762,30.762,0,0,1,10.419-23.12c7.794-6.849,30.5-22.777,72.887-22.777a57.145,57.145,0,1,0-34.768-11.844c-24.81,5.454-40.243,15.95-48.3,23.033A46.189,46.189,0,0,0,1,161.056v14.27a23.167,23.167,0,0,0,23.14,23.14H175.326a23.167,23.167,0,0,0,23.14-23.14v-14.27A46.189,46.189,0,0,0,182.8,126.348ZM58.08,58.08A41.653,41.653,0,1,1,99.733,99.733,41.7,41.7,0,0,1,58.08,58.08Z" transform="translate(1337.065 1006.143) rotate(-34)" fill="#e9008f"/>
      <path id="photo-3" data-name="photo" d="M159.165,110.052a80.437,80.437,0,0,0-20.524-12.846,6.71,6.71,0,1,0-5.448,12.264,67.2,67.2,0,0,1,17.114,10.663,26.763,26.763,0,0,1,9.065,20.114v12.415a6.72,6.72,0,0,1-6.71,6.71H21.131a6.72,6.72,0,0,1-6.71-6.71V140.247a26.763,26.763,0,0,1,9.065-20.114c6.781-5.958,26.535-19.816,63.411-19.816a49.716,49.716,0,1,0-30.248-10.3c-21.585,4.745-35.011,13.877-42.021,20.038A40.184,40.184,0,0,0,1,140.247v12.415a20.155,20.155,0,0,0,20.131,20.131h131.53a20.155,20.155,0,0,0,20.131-20.131V140.247a40.184,40.184,0,0,0-13.628-30.2ZM50.659,50.659A36.238,36.238,0,1,1,86.9,86.9,36.28,36.28,0,0,1,50.659,50.659Z" transform="translate(155.264 1468.644) rotate(21)" fill="#e9008f"/>
      <path id="photo-4" data-name="photo" d="M100.153,69.364a50.426,50.426,0,0,0-12.866-8.053A4.206,4.206,0,1,0,83.871,69,42.128,42.128,0,0,1,94.6,75.684a16.778,16.778,0,0,1,5.683,12.609v7.783a4.213,4.213,0,0,1-4.207,4.207H13.62a4.213,4.213,0,0,1-4.207-4.207V88.294A16.778,16.778,0,0,1,15.1,75.684c4.251-3.735,16.635-12.422,39.752-12.422A31.167,31.167,0,1,0,35.886,56.8C22.355,59.777,13.938,65.5,9.543,69.364A25.191,25.191,0,0,0,1,88.294v7.783A12.635,12.635,0,0,0,13.62,108.7H96.076a12.635,12.635,0,0,0,12.62-12.62V88.294a25.191,25.191,0,0,0-8.543-18.929ZM32.131,32.131A22.717,22.717,0,1,1,54.848,54.848,22.744,22.744,0,0,1,32.131,32.131Z" transform="translate(1486.258 1972.947) rotate(21)" fill="#e9008f"/>
      <path id="photo-5" data-name="photo" d="M77.21,53.545a38.757,38.757,0,0,0-9.889-6.19A3.233,3.233,0,1,0,64.7,53.265,32.379,32.379,0,0,1,72.942,58.4a12.9,12.9,0,0,1,4.368,9.692v5.982a3.238,3.238,0,0,1-3.233,3.233H10.7a3.238,3.238,0,0,1-3.233-3.233V68.094A12.9,12.9,0,0,1,11.834,58.4c3.267-2.871,12.786-9.548,30.554-9.548A23.955,23.955,0,1,0,27.813,43.89c-10.4,2.286-16.869,6.686-20.247,9.655A19.362,19.362,0,0,0,1,68.094v5.982a9.711,9.711,0,0,0,9.7,9.7H74.076a9.711,9.711,0,0,0,9.7-9.7V68.094A19.362,19.362,0,0,0,77.21,53.545ZM24.927,24.927A17.461,17.461,0,1,1,42.388,42.388,17.481,17.481,0,0,1,24.927,24.927Z" transform="translate(167.557 2005.144) rotate(21)" fill="#e9008f"/>
      <path id="photo-6" data-name="photo" d="M81.205,56.3A40.789,40.789,0,0,0,70.8,49.786,3.4,3.4,0,1,0,68.035,56a34.077,34.077,0,0,1,8.679,5.407,13.571,13.571,0,0,1,4.6,10.2v6.3a3.408,3.408,0,0,1-3.4,3.4h-66.7a3.408,3.408,0,0,1-3.4-3.4v-6.3a13.571,13.571,0,0,1,4.6-10.2c3.438-3.021,13.456-10.049,32.155-10.049a25.211,25.211,0,1,0-15.339-5.225C18.274,48.545,11.465,53.175,7.911,56.3A20.377,20.377,0,0,0,1,71.612v6.3A10.22,10.22,0,0,0,11.209,88.116h66.7A10.22,10.22,0,0,0,88.116,77.907v-6.3A20.377,20.377,0,0,0,81.205,56.3ZM26.182,26.182A18.376,18.376,0,1,1,44.558,44.558,18.4,18.4,0,0,1,26.182,26.182Z" transform="translate(1511.162 -10.661) rotate(21)" fill="#e9008f"/>
    </g>
  </g>
</svg>
