<svg xmlns="http://www.w3.org/2000/svg" xmlns:xlink="http://www.w3.org/1999/xlink" width="1366" height="3300" viewBox="0 0 1366 3300">
  <defs>
    <clipPath id="clip-path">
      <rect id="ContentLayer" width="1366" height="3300" fill="#fff" stroke="#707070" stroke-width="1" opacity="0"/>
    </clipPath>
  </defs>
  <g id="benchmarks_iconbg" clip-path="url(#clip-path)">
    <g id="IconBg" transform="translate(-98 285.797)" opacity="0.4">
      <circle id="Ellipse_403" data-name="Ellipse 403" cx="37" cy="37" r="37" transform="translate(61 1778.551)" fill="#0db965"/>
      <circle id="Ellipse_405" data-name="Ellipse 405" cx="106.397" cy="106.397" r="106.397" transform="translate(1388.686 732.908)" fill="#0db965"/>
      <circle id="Ellipse_401" data-name="Ellipse 401" cx="185.687" cy="185.687" r="185.687" transform="translate(1365.983 1864.551)" fill="#0db965" opacity="0.5"/>
      <circle id="Ellipse_445" data-name="Ellipse 445" cx="185.687" cy="185.687" r="185.687" transform="translate(-174.707 2642.829)" fill="#0db965" opacity="0.732"/>
      <circle id="Ellipse_404" data-name="Ellipse 404" cx="123.148" cy="123.148" r="123.148" transform="translate(-25.148 790.703)" fill="#0db965" opacity="0.3"/>
      <g id="_008-volume" data-name="008-volume" transform="matrix(0.848, -0.53, 0.53, 0.848, 1294.963, 1364.598)">
        <path id="Path_34" data-name="Path 34" d="M189.848,32.593a111.2,111.2,0,1,0,0,157.255A111.136,111.136,0,0,0,189.848,32.593ZM111.221,204.15a92.929,92.929,0,1,1,92.929-92.929A93.035,93.035,0,0,1,111.221,204.15Z" transform="translate(0 0)" fill="#0db965"/>
        <path id="Path_35" data-name="Path 35" d="M286.524,149.391a9.134,9.134,0,0,0-9.134,9.133v74.228a9.133,9.133,0,0,0,18.267,0V158.524A9.134,9.134,0,0,0,286.524,149.391Z" transform="translate(-156.747 -84.417)" fill="#0db965"/>
        <path id="Path_36" data-name="Path 36" d="M371.857,192.058a9.134,9.134,0,0,0-9.134,9.134v55.67a9.134,9.134,0,0,0,18.267,0v-55.67A9.134,9.134,0,0,0,371.857,192.058Z" transform="translate(-204.966 -108.527)" fill="#0db965"/>
        <path id="Path_37" data-name="Path 37" d="M201.191,224.058a9.133,9.133,0,0,0-9.133,9.133v41.753a9.133,9.133,0,0,0,18.267,0V233.191A9.133,9.133,0,0,0,201.191,224.058Z" transform="translate(-108.527 -126.609)" fill="#0db965"/>
        <path id="Path_38" data-name="Path 38" d="M115.857,277.391a9.133,9.133,0,0,0-9.133,9.134v18.557a9.133,9.133,0,1,0,18.267,0V286.524A9.133,9.133,0,0,0,115.857,277.391Z" transform="translate(-60.307 -156.746)" fill="#0db965"/>
      </g>
      <g id="_008-volume-2" data-name="008-volume" transform="matrix(0.848, -0.53, 0.53, 0.848, 10.98, 1392.788)">
        <path id="Path_34-2" data-name="Path 34" d="M107.795,18.506a63.137,63.137,0,1,0,0,89.289A63.1,63.1,0,0,0,107.795,18.506ZM63.151,115.916a52.765,52.765,0,1,1,52.765-52.765A52.825,52.825,0,0,1,63.151,115.916Z" transform="translate(0 0)" fill="#0db965"/>
        <path id="Path_35-2" data-name="Path 35" d="M282.577,149.391a5.186,5.186,0,0,0-5.186,5.186v42.146a5.186,5.186,0,1,0,10.372,0V154.577A5.186,5.186,0,0,0,282.577,149.391Z" transform="translate(-208.89 -112.499)" fill="#0db965"/>
        <path id="Path_36-2" data-name="Path 36" d="M367.91,192.058a5.186,5.186,0,0,0-5.186,5.186v31.609a5.186,5.186,0,0,0,10.372,0V197.244A5.186,5.186,0,0,0,367.91,192.058Z" transform="translate(-273.149 -144.629)" fill="#0db965"/>
        <path id="Path_37-2" data-name="Path 37" d="M197.243,224.058a5.186,5.186,0,0,0-5.186,5.186v23.707a5.186,5.186,0,0,0,10.372,0V229.244A5.186,5.186,0,0,0,197.243,224.058Z" transform="translate(-144.629 -168.727)" fill="#0db965"/>
        <path id="Path_38-2" data-name="Path 38" d="M111.91,277.391a5.186,5.186,0,0,0-5.186,5.186v10.536a5.186,5.186,0,1,0,10.372,0V282.577A5.186,5.186,0,0,0,111.91,277.391Z" transform="translate(-80.369 -208.889)" fill="#0db965"/>
      </g>
      <g id="_008-volume-3" data-name="008-volume" transform="matrix(0.799, 0.602, -0.602, 0.799, 96.102, 2177.832)">
        <path id="Path_34-3" data-name="Path 34" d="M149.756,25.71a87.714,87.714,0,1,0,0,124.046A87.667,87.667,0,0,0,149.756,25.71ZM87.733,161.038a73.3,73.3,0,1,1,73.3-73.3A73.388,73.388,0,0,1,87.733,161.038Z" transform="translate(0 0)" fill="#0db965"/>
        <path id="Path_35-3" data-name="Path 35" d="M284.6,149.391a7.2,7.2,0,0,0-7.2,7.2v58.552a7.2,7.2,0,1,0,14.409,0V156.6A7.2,7.2,0,0,0,284.6,149.391Z" transform="translate(-182.224 -98.138)" fill="#0db965"/>
        <path id="Path_36-3" data-name="Path 36" d="M369.929,192.058a7.2,7.2,0,0,0-7.2,7.2v43.914a7.2,7.2,0,0,0,14.41,0V199.263A7.2,7.2,0,0,0,369.929,192.058Z" transform="translate(-238.281 -126.167)" fill="#0db965"/>
        <path id="Path_37-3" data-name="Path 37" d="M199.262,224.058a7.2,7.2,0,0,0-7.2,7.2V264.2a7.2,7.2,0,0,0,14.409,0V231.262A7.2,7.2,0,0,0,199.262,224.058Z" transform="translate(-126.167 -147.188)" fill="#0db965"/>
        <path id="Path_38-3" data-name="Path 38" d="M113.929,277.391a7.2,7.2,0,0,0-7.2,7.2v14.638a7.2,7.2,0,1,0,14.409,0V284.6A7.2,7.2,0,0,0,113.929,277.391Z" transform="translate(-70.109 -182.224)" fill="#0db965"/>
      </g>
      <g id="_008-volume-4" data-name="008-volume" transform="translate(1386.185 2638.247) rotate(15)">
        <path id="Path_34-4" data-name="Path 34" d="M149.756,25.71a87.714,87.714,0,1,0,0,124.046A87.667,87.667,0,0,0,149.756,25.71ZM87.733,161.038a73.3,73.3,0,1,1,73.3-73.3A73.388,73.388,0,0,1,87.733,161.038Z" transform="translate(0 0)" fill="#0db965"/>
        <path id="Path_35-4" data-name="Path 35" d="M284.6,149.391a7.2,7.2,0,0,0-7.2,7.2v58.552a7.2,7.2,0,1,0,14.409,0V156.6A7.2,7.2,0,0,0,284.6,149.391Z" transform="translate(-182.224 -98.138)" fill="#0db965"/>
        <path id="Path_36-4" data-name="Path 36" d="M369.929,192.058a7.2,7.2,0,0,0-7.2,7.2v43.914a7.2,7.2,0,0,0,14.41,0V199.263A7.2,7.2,0,0,0,369.929,192.058Z" transform="translate(-238.281 -126.167)" fill="#0db965"/>
        <path id="Path_37-4" data-name="Path 37" d="M199.262,224.058a7.2,7.2,0,0,0-7.2,7.2V264.2a7.2,7.2,0,0,0,14.409,0V231.262A7.2,7.2,0,0,0,199.262,224.058Z" transform="translate(-126.167 -147.188)" fill="#0db965"/>
        <path id="Path_38-4" data-name="Path 38" d="M113.929,277.391a7.2,7.2,0,0,0-7.2,7.2v14.638a7.2,7.2,0,1,0,14.409,0V284.6A7.2,7.2,0,0,0,113.929,277.391Z" transform="translate(-70.109 -182.224)" fill="#0db965"/>
      </g>
      <g id="_008-volume-5" data-name="008-volume" transform="matrix(0.819, 0.574, -0.574, 0.819, 87.138, 402.334)">
        <path id="Path_34-5" data-name="Path 34" d="M75.5,12.962a44.222,44.222,0,1,0,0,62.539A44.2,44.2,0,0,0,75.5,12.962ZM44.231,81.189A36.957,36.957,0,1,1,81.189,44.232,37,37,0,0,1,44.231,81.189Z" transform="translate(0 0)" fill="#0db965"/>
        <path id="Path_35-5" data-name="Path 35" d="M281.023,149.391a3.632,3.632,0,0,0-3.632,3.632v29.52a3.632,3.632,0,1,0,7.265,0v-29.52A3.632,3.632,0,0,0,281.023,149.391Z" transform="translate(-229.412 -123.551)" fill="#0db965"/>
        <path id="Path_36-5" data-name="Path 36" d="M366.356,192.058a3.632,3.632,0,0,0-3.632,3.632v22.14a3.632,3.632,0,0,0,7.265,0V195.69A3.632,3.632,0,0,0,366.356,192.058Z" transform="translate(-299.985 -158.838)" fill="#0db965"/>
        <path id="Path_37-5" data-name="Path 37" d="M195.689,224.058a3.632,3.632,0,0,0-3.632,3.632v16.6a3.632,3.632,0,0,0,7.265,0v-16.6A3.632,3.632,0,0,0,195.689,224.058Z" transform="translate(-158.838 -185.303)" fill="#0db965"/>
        <path id="Path_38-5" data-name="Path 38" d="M110.356,277.391a3.632,3.632,0,0,0-3.632,3.632v7.38a3.632,3.632,0,1,0,7.265,0v-7.38A3.632,3.632,0,0,0,110.356,277.391Z" transform="translate(-88.265 -229.412)" fill="#0db965"/>
      </g>
      <g id="_008-volume-6" data-name="008-volume" transform="translate(1400.433 213.13) rotate(18)">
        <path id="Path_34-6" data-name="Path 34" d="M95.147,16.335a55.729,55.729,0,1,0,0,78.813A55.7,55.7,0,0,0,95.147,16.335Zm-39.406,85.98a46.574,46.574,0,1,1,46.574-46.574A46.627,46.627,0,0,1,55.741,102.316Z" transform="translate(0 0)" fill="#0db965"/>
        <path id="Path_35-6" data-name="Path 35" d="M281.968,149.391a4.578,4.578,0,0,0-4.578,4.577v37.2a4.577,4.577,0,1,0,9.155,0v-37.2A4.578,4.578,0,0,0,281.968,149.391Z" transform="translate(-216.927 -116.827)" fill="#0db965"/>
        <path id="Path_36-6" data-name="Path 36" d="M367.3,192.058a4.578,4.578,0,0,0-4.578,4.578v27.9a4.578,4.578,0,0,0,9.155,0v-27.9A4.578,4.578,0,0,0,367.3,192.058Z" transform="translate(-283.659 -150.194)" fill="#0db965"/>
        <path id="Path_37-6" data-name="Path 37" d="M196.635,224.058a4.578,4.578,0,0,0-4.577,4.577v20.926a4.577,4.577,0,0,0,9.155,0V228.635A4.577,4.577,0,0,0,196.635,224.058Z" transform="translate(-150.194 -175.219)" fill="#0db965"/>
        <path id="Path_38-6" data-name="Path 38" d="M111.3,277.391a4.577,4.577,0,0,0-4.577,4.578v9.3a4.577,4.577,0,1,0,9.155,0v-9.3A4.577,4.577,0,0,0,111.3,277.391Z" transform="translate(-83.461 -216.927)" fill="#0db965"/>
      </g>
    </g>
  </g>
</svg>
