<svg xmlns="http://www.w3.org/2000/svg" xmlns:xlink="http://www.w3.org/1999/xlink" width="1366" height="3300" viewBox="0 0 1366 3300">
  <defs>
    <clipPath id="clip-path">
      <rect id="ContentLayer" width="1366" height="3300" fill="none"/>
    </clipPath>
  </defs>
  <g id="chartsummary_Iconbg" clip-path="url(#clip-path)">
    <g id="IconBg" transform="translate(-16 170.018)" opacity="0.356">
      <g id="pie-chart" transform="translate(1389.401 1185.692) rotate(69)" opacity="0.6">
        <path id="Path_43" data-name="Path 43" d="M23.592,0A9.872,9.872,0,0,0,13.72,9.872V128.684a29.7,29.7,0,0,0,29.7,29.7H162.148a9.872,9.872,0,0,0,9.872-9.959A148.6,148.6,0,0,0,23.592,0ZM43.423,138.556a9.872,9.872,0,0,1-9.959-9.872V20.177A128.857,128.857,0,0,1,151.843,138.556Z" transform="translate(105.21)" fill="#ffb100"/>
        <path id="Path_44" data-name="Path 44" d="M243.976,155.185a9.872,9.872,0,0,0-12.643,6.062,107.987,107.987,0,0,1-108.68,72.4,109.633,109.633,0,0,1-102.7-103.917A108.247,108.247,0,0,1,92.431,22.345,9.915,9.915,0,1,0,85.849,3.64,127.9,127.9,0,0,0,.118,130.245,129.9,129.9,0,0,0,121.354,253.56h7.274a127.558,127.558,0,0,0,121.237-85.732A9.872,9.872,0,0,0,243.976,155.185Z" transform="translate(0 23.552)" fill="#ffb100"/>
      </g>
      <g id="pie-chart-2" data-name="pie-chart" transform="translate(-36.458 683.988) rotate(-19)" opacity="0.6">
        <path id="Path_43-2" data-name="Path 43" d="M19.309,0A5.589,5.589,0,0,0,13.72,5.589V72.847A16.815,16.815,0,0,0,30.535,89.662h67.21a5.589,5.589,0,0,0,5.589-5.638A84.122,84.122,0,0,0,19.309,0ZM30.535,78.436A5.589,5.589,0,0,1,24.9,72.847V11.422A72.945,72.945,0,0,1,91.911,78.436Z" transform="translate(53.599)" fill="#ffb100"/>
        <path id="Path_44-2" data-name="Path 44" d="M138.107,89.184a5.589,5.589,0,0,0-7.157,3.432A61.131,61.131,0,0,1,69.427,133.6,62.062,62.062,0,0,1,11.286,74.771,61.278,61.278,0,0,1,52.318,13.983,5.613,5.613,0,1,0,48.592,3.394,72.406,72.406,0,0,0,.06,75.065a73.534,73.534,0,0,0,68.631,69.808h4.118a72.21,72.21,0,0,0,68.631-48.532A5.589,5.589,0,0,0,138.107,89.184Z" transform="translate(0 11.999)" fill="#ffb100"/>
      </g>
      <g id="pie-chart-3" data-name="pie-chart" transform="matrix(-0.326, -0.946, 0.946, -0.326, 1329.27, 446.914)" opacity="0.7">
        <path id="Path_43-3" data-name="Path 43" d="M18.383,0A4.663,4.663,0,0,0,13.72,4.663V60.787A14.031,14.031,0,0,0,27.751,74.818H83.834a4.663,4.663,0,0,0,4.663-4.7A70.2,70.2,0,0,0,18.383,0Zm9.368,65.451a4.663,4.663,0,0,1-4.7-4.663V9.531A60.869,60.869,0,0,1,78.966,65.451Z" transform="translate(42.451)" fill="#ffb100"/>
        <path id="Path_44-3" data-name="Path 44" d="M115.241,74.928a4.663,4.663,0,0,0-5.972,2.863,51.011,51.011,0,0,1-51.338,34.2A51.788,51.788,0,0,1,9.415,62.9,51.133,51.133,0,0,1,43.654,12.177a4.683,4.683,0,1,0-3.109-8.836A60.419,60.419,0,0,0,.047,63.147,61.36,61.36,0,0,0,57.317,121.4h3.436a60.255,60.255,0,0,0,57.269-40.5A4.663,4.663,0,0,0,115.241,74.928Z" transform="translate(0 9.503)" fill="#ffb100"/>
      </g>
      <g id="pie-chart-4" data-name="pie-chart" transform="translate(303.771 1640.682) rotate(111)" opacity="0.4">
        <path id="Path_43-4" data-name="Path 43" d="M26.441,0A12.721,12.721,0,0,0,13.72,12.721V165.813a38.273,38.273,0,0,0,38.273,38.273H204.974a12.721,12.721,0,0,0,12.72-12.832C217.572,85.678,132.016.123,26.441,0ZM51.993,178.534a12.721,12.721,0,0,1-12.832-12.721V26A166.036,166.036,0,0,1,191.7,178.534Z" transform="translate(139.529)" fill="#ffb100"/>
        <path id="Path_44-4" data-name="Path 44" d="M314.375,199.074a12.721,12.721,0,0,0-16.291,7.811,139.145,139.145,0,0,1-140.037,93.284,141.265,141.265,0,0,1-132.338-133.9A139.479,139.479,0,0,1,119.1,27.9a12.775,12.775,0,1,0-8.48-24.1A164.809,164.809,0,0,0,.156,166.937,167.375,167.375,0,0,0,156.373,325.832h9.373A164.362,164.362,0,0,0,321.963,215.365,12.721,12.721,0,0,0,314.375,199.074Z" transform="translate(0 31.235)" fill="#ffb100"/>
      </g>
      <g id="pie-chart-5" data-name="pie-chart" transform="matrix(-0.927, -0.375, 0.375, -0.927, 1443.438, 2892.87)" opacity="0.5">
        <path id="Path_43-5" data-name="Path 43" d="M26.441,0A12.721,12.721,0,0,0,13.72,12.721V165.813a38.273,38.273,0,0,0,38.273,38.273H204.974a12.721,12.721,0,0,0,12.72-12.832C217.572,85.678,132.016.123,26.441,0ZM51.993,178.534a12.721,12.721,0,0,1-12.832-12.721V26A166.036,166.036,0,0,1,191.7,178.534Z" transform="translate(139.529)" fill="#ffb100"/>
        <path id="Path_44-5" data-name="Path 44" d="M314.375,199.074a12.721,12.721,0,0,0-16.291,7.811,139.145,139.145,0,0,1-140.037,93.284,141.265,141.265,0,0,1-132.338-133.9A139.479,139.479,0,0,1,119.1,27.9a12.775,12.775,0,1,0-8.48-24.1A164.809,164.809,0,0,0,.156,166.937,167.375,167.375,0,0,0,156.373,325.832h9.373A164.362,164.362,0,0,0,321.963,215.365,12.721,12.721,0,0,0,314.375,199.074Z" transform="translate(0 31.235)" fill="#ffb100"/>
      </g>
      <circle id="Ellipse_400" data-name="Ellipse 400" cx="74" cy="74" r="74" transform="translate(-26 995.982)" fill="#ffb100"/>
      <circle id="Ellipse_403" data-name="Ellipse 403" cx="37" cy="37" r="37" transform="translate(-1 2126.982)" fill="#ffb100"/>
      <circle id="Ellipse_401" data-name="Ellipse 401" cx="151" cy="151" r="151" transform="translate(1231 600.982)" fill="#ffb100"/>
      <circle id="Ellipse_446" data-name="Ellipse 446" cx="98" cy="98" r="98" transform="translate(1310 1777.982)" fill="#ffb100"/>
      <circle id="Ellipse_402" data-name="Ellipse 402" cx="280" cy="280" r="280" transform="translate(-397 2534.982)" fill="#ffb100"/>
    </g>
  </g>
</svg>
