<svg xmlns="http://www.w3.org/2000/svg" xmlns:xlink="http://www.w3.org/1999/xlink" width="1366" height="3300" viewBox="0 0 1366 3300">
  <defs>
    <clipPath id="clip-path">
      <rect id="ContentLayer" width="1366" height="3300" fill="#fff" stroke="#707070" stroke-width="1" opacity="0"/>
    </clipPath>
  </defs>
  <g id="chartcomparison_iconbg" clip-path="url(#clip-path)">
    <g id="IconBg" transform="translate(-98)" opacity="0.3">
      <ellipse id="Ellipse_400" data-name="Ellipse 400" cx="53.5" cy="50.578" rx="53.5" ry="50.578" transform="translate(1418.683 467.99)" fill="#0032d8" opacity="0.5"/>
      <circle id="Ellipse_401" data-name="Ellipse 401" cx="92.687" cy="92.687" r="92.687" transform="translate(5.314 898.829)" fill="#0032d8" opacity="0.5"/>
      <circle id="Ellipse_439" data-name="Ellipse 439" cx="46.687" cy="46.687" r="46.687" transform="translate(72.314 2261.915)" fill="#0032d8" opacity="0.5"/>
      <circle id="Ellipse_402" data-name="Ellipse 402" cx="280" cy="280" r="280" transform="translate(1227.438 1795.289)" fill="#0032d8" opacity="0.2"/>
      <path id="global" d="M88.317,0a88.317,88.317,0,1,0,88.317,88.317A88.269,88.269,0,0,0,88.317,0Zm74.2,81.418h-33.5c-.2-5.909-.658-11.721-1.366-17.382,14.659-10.913,8.716-34.121-9.3-36.687a78.747,78.747,0,0,0-4.545-9.09,74.571,74.571,0,0,1,48.706,63.159Zm-74.2,81.418c-5.4,0-11.374-6.175-16.239-16.5A20.459,20.459,0,0,0,62.4,108.6c-.486-4.373-.814-8.843-.978-13.379h53.8c-.653,18.232-3.889,35.079-9.28,48.017C100.822,155.508,94.236,162.835,88.317,162.835ZM61.178,122.356a6.67,6.67,0,1,1-6.67,6.67A6.677,6.677,0,0,1,61.178,122.356Zm.24-40.939c.653-18.232,3.889-35.079,9.28-48.017,5.114-12.273,11.7-19.6,17.619-19.6,5.4,0,11.374,6.175,16.239,16.5a20.459,20.459,0,0,0,9.683,37.743c.486,4.373.814,8.843.978,13.379Zm54.038-27.139a6.67,6.67,0,1,1,6.67-6.67A6.677,6.677,0,0,1,115.457,54.278ZM62.846,18.25C52.468,35.784,48.3,60.872,47.611,81.418H14.117A74.574,74.574,0,0,1,62.846,18.25ZM14.117,95.217h33.5c.2,5.909.659,11.721,1.367,17.382-14.659,10.913-8.715,34.12,9.3,36.687a78.756,78.756,0,0,0,4.545,9.09,74.572,74.572,0,0,1-48.706-63.16Zm99.671,63.168c10.373-17.527,14.542-42.606,15.235-63.168h33.494A74.574,74.574,0,0,1,113.788,158.385Z" transform="translate(1357.365 744.203)" fill="#0032d8" opacity="0.4"/>
      <path id="global-2" data-name="global" d="M204.856,0A204.856,204.856,0,1,0,409.712,204.856,204.745,204.745,0,0,0,204.856,0Zm172.11,188.852h-77.7c-.462-13.707-1.527-27.187-3.169-40.319,34-25.314,20.217-79.144-21.567-85.1a182.662,182.662,0,0,0-10.543-21.085c59.716,21.688,106.636,76.994,112.976,146.5ZM204.856,377.7c-12.528,0-26.382-14.323-37.668-38.262a47.455,47.455,0,0,0-22.46-87.547c-1.128-10.144-1.888-20.511-2.269-31.033H267.249c-1.516,42.289-9.021,81.368-21.525,111.378C233.861,360.707,218.584,377.7,204.856,377.7Zm-62.951-93.892a15.471,15.471,0,1,1-15.471,15.471A15.488,15.488,0,0,1,141.905,283.811Zm.558-94.96c1.516-42.289,9.021-81.368,21.525-111.378C175.85,49,191.127,32.009,204.856,32.009c12.528,0,26.382,14.323,37.667,38.263a47.455,47.455,0,0,0,22.46,87.546c1.128,10.144,1.888,20.511,2.269,31.033ZM267.807,125.9a15.471,15.471,0,1,1,15.471-15.471A15.489,15.489,0,0,1,267.807,125.9ZM145.774,42.331C121.7,83,112.043,141.195,110.437,188.852H32.746C39.1,119.21,86.15,63.964,145.774,42.331ZM32.746,220.86h77.7c.463,13.707,1.528,27.187,3.17,40.319-34,25.314-20.216,79.143,21.567,85.1a182.68,182.68,0,0,0,10.543,21.086C86.006,345.673,39.086,290.367,32.746,220.86ZM263.937,367.381c24.061-40.655,33.73-98.826,35.338-146.521h77.692C370.613,290.5,323.561,345.748,263.937,367.381Z" transform="translate(-16.712 1450.203)" fill="#0032d8" opacity="0.199"/>
      <path id="global-3" data-name="global" d="M204.856,0A204.856,204.856,0,1,0,409.712,204.856,204.745,204.745,0,0,0,204.856,0Zm172.11,188.852h-77.7c-.462-13.707-1.527-27.187-3.169-40.319,34-25.314,20.217-79.144-21.567-85.1a182.662,182.662,0,0,0-10.543-21.085c59.716,21.688,106.636,76.994,112.976,146.5ZM204.856,377.7c-12.528,0-26.382-14.323-37.668-38.262a47.455,47.455,0,0,0-22.46-87.547c-1.128-10.144-1.888-20.511-2.269-31.033H267.249c-1.516,42.289-9.021,81.368-21.525,111.378C233.861,360.707,218.584,377.7,204.856,377.7Zm-62.951-93.892a15.471,15.471,0,1,1-15.471,15.471A15.488,15.488,0,0,1,141.905,283.811Zm.558-94.96c1.516-42.289,9.021-81.368,21.525-111.378C175.85,49,191.127,32.009,204.856,32.009c12.528,0,26.382,14.323,37.667,38.263a47.455,47.455,0,0,0,22.46,87.546c1.128,10.144,1.888,20.511,2.269,31.033ZM267.807,125.9a15.471,15.471,0,1,1,15.471-15.471A15.489,15.489,0,0,1,267.807,125.9ZM145.774,42.331C121.7,83,112.043,141.195,110.437,188.852H32.746C39.1,119.21,86.15,63.964,145.774,42.331ZM32.746,220.86h77.7c.463,13.707,1.528,27.187,3.17,40.319-34,25.314-20.216,79.143,21.567,85.1a182.68,182.68,0,0,0,10.543,21.086C86.006,345.673,39.086,290.367,32.746,220.86ZM263.937,367.381c24.061-40.655,33.73-98.826,35.338-146.521h77.692C370.613,290.5,323.561,345.748,263.937,367.381Z" transform="translate(1149.288 2890.288)" fill="#0032d8" opacity="0.199"/>
      <path id="global-4" data-name="global" d="M49.676,0A49.676,49.676,0,1,0,99.352,49.676,49.649,49.649,0,0,0,49.676,0ZM91.411,45.795H72.57c-.112-3.324-.37-6.593-.768-9.777a11.52,11.52,0,0,0-5.23-20.635,44.294,44.294,0,0,0-2.557-5.113,41.944,41.944,0,0,1,27.4,35.525ZM49.676,91.59c-3.038,0-6.4-3.473-9.134-9.278A11.507,11.507,0,0,0,35.1,61.082c-.274-2.46-.458-4.974-.55-7.525h30.26c-.368,10.255-2.187,19.731-5.22,27.008C56.709,87.469,53,91.59,49.676,91.59ZM34.411,68.822a3.752,3.752,0,1,1-3.752,3.752A3.756,3.756,0,0,1,34.411,68.822Zm.135-23.027c.368-10.255,2.187-19.731,5.22-27.008,2.876-6.9,6.581-11.025,9.91-11.025,3.038,0,6.4,3.473,9.134,9.279A11.507,11.507,0,0,0,64.256,38.27c.274,2.46.458,4.974.55,7.525ZM64.941,30.53a3.752,3.752,0,1,1,3.752-3.752A3.756,3.756,0,0,1,64.941,30.53ZM35.349,10.265c-5.837,9.863-8.179,23.974-8.569,35.53H7.941A41.946,41.946,0,0,1,35.349,10.265ZM7.941,53.557H26.781c.112,3.324.37,6.593.769,9.777a11.52,11.52,0,0,0,5.23,20.635,44.3,44.3,0,0,0,2.557,5.113,41.944,41.944,0,0,1-27.4-35.525ZM64,89.087c5.835-9.859,8.179-23.965,8.569-35.53h18.84A41.946,41.946,0,0,1,64,89.087Z" transform="matrix(0.545, 0.839, -0.839, 0.545, 1453.327, 1355.768)" fill="#0032d8" opacity="0.499"/>
      <path id="global-5" data-name="global" d="M49.676,0A49.676,49.676,0,1,0,99.352,49.676,49.649,49.649,0,0,0,49.676,0ZM91.411,45.795H72.57c-.112-3.324-.37-6.593-.768-9.777a11.52,11.52,0,0,0-5.23-20.635,44.294,44.294,0,0,0-2.557-5.113,41.944,41.944,0,0,1,27.4,35.525ZM49.676,91.59c-3.038,0-6.4-3.473-9.134-9.278A11.507,11.507,0,0,0,35.1,61.082c-.274-2.46-.458-4.974-.55-7.525h30.26c-.368,10.255-2.187,19.731-5.22,27.008C56.709,87.469,53,91.59,49.676,91.59ZM34.411,68.822a3.752,3.752,0,1,1-3.752,3.752A3.756,3.756,0,0,1,34.411,68.822Zm.135-23.027c.368-10.255,2.187-19.731,5.22-27.008,2.876-6.9,6.581-11.025,9.91-11.025,3.038,0,6.4,3.473,9.134,9.279A11.507,11.507,0,0,0,64.256,38.27c.274,2.46.458,4.974.55,7.525ZM64.941,30.53a3.752,3.752,0,1,1,3.752-3.752A3.756,3.756,0,0,1,64.941,30.53ZM35.349,10.265c-5.837,9.863-8.179,23.974-8.569,35.53H7.941A41.946,41.946,0,0,1,35.349,10.265ZM7.941,53.557H26.781c.112,3.324.37,6.593.769,9.777a11.52,11.52,0,0,0,5.23,20.635,44.3,44.3,0,0,0,2.557,5.113,41.944,41.944,0,0,1-27.4-35.525ZM64,89.087c5.835-9.859,8.179-23.965,8.569-35.53h18.84A41.946,41.946,0,0,1,64,89.087Z" transform="matrix(-0.777, 0.629, -0.629, -0.777, 155.589, 669.828)" fill="#0032d8" opacity="0.499"/>
      <path id="global-6" data-name="global" d="M88.317,0a88.317,88.317,0,1,0,88.317,88.317A88.269,88.269,0,0,0,88.317,0Zm74.2,81.418h-33.5c-.2-5.909-.658-11.721-1.366-17.382,14.659-10.913,8.716-34.121-9.3-36.687a78.747,78.747,0,0,0-4.545-9.09,74.571,74.571,0,0,1,48.706,63.159Zm-74.2,81.418c-5.4,0-11.374-6.175-16.239-16.5A20.459,20.459,0,0,0,62.4,108.6c-.486-4.373-.814-8.843-.978-13.379h53.8c-.653,18.232-3.889,35.079-9.28,48.017C100.822,155.508,94.236,162.835,88.317,162.835ZM61.178,122.356a6.67,6.67,0,1,1-6.67,6.67A6.677,6.677,0,0,1,61.178,122.356Zm.24-40.939c.653-18.232,3.889-35.079,9.28-48.017,5.114-12.273,11.7-19.6,17.619-19.6,5.4,0,11.374,6.175,16.239,16.5a20.459,20.459,0,0,0,9.683,37.743c.486,4.373.814,8.843.978,13.379Zm54.038-27.139a6.67,6.67,0,1,1,6.67-6.67A6.677,6.677,0,0,1,115.457,54.278ZM62.846,18.25C52.468,35.784,48.3,60.872,47.611,81.418H14.117A74.574,74.574,0,0,1,62.846,18.25ZM14.117,95.217h33.5c.2,5.909.659,11.721,1.367,17.382-14.659,10.913-8.715,34.12,9.3,36.687a78.756,78.756,0,0,0,4.545,9.09,74.572,74.572,0,0,1-48.706-63.16Zm99.671,63.168c10.373-17.527,14.542-42.606,15.235-63.168h33.494A74.574,74.574,0,0,1,113.788,158.385Z" transform="matrix(0.695, 0.719, -0.719, 0.695, 132.374, 2626.726)" fill="#0032d8" opacity="0.4"/>
    </g>
  </g>
</svg>
