<svg xmlns="http://www.w3.org/2000/svg" xmlns:xlink="http://www.w3.org/1999/xlink" width="1366" height="3300" viewBox="0 0 1366 3300">
  <defs>
    <clipPath id="clip-path">
      <rect id="ContentLayer" width="1366" height="3300" fill="#fff" stroke="#707070" stroke-width="1" opacity="0"/>
    </clipPath>
  </defs>
  <g id="competitive_iconbg" clip-path="url(#clip-path)">
    <g id="IconBg" transform="translate(-98 421.797)" opacity="0.3">
      <ellipse id="Ellipse_400" data-name="Ellipse 400" cx="53.5" cy="50.578" rx="53.5" ry="50.578" transform="translate(1445.683 133.99)" fill="#4d9fff" opacity="0.5"/>
      <circle id="Ellipse_403" data-name="Ellipse 403" cx="37" cy="37" r="37" transform="translate(1427 657.516)" fill="#4d9fff"/>
      <circle id="Ellipse_401" data-name="Ellipse 401" cx="92.687" cy="92.687" r="92.687" transform="translate(5.314 564.829)" fill="#4d9fff" opacity="0.5"/>
      <circle id="Ellipse_402" data-name="Ellipse 402" cx="280" cy="280" r="280" transform="translate(1279 1478.513)" fill="#4d9fff" opacity="0.536"/>
      <circle id="Ellipse_444" data-name="Ellipse 444" cx="128.843" cy="128.843" r="128.843" transform="translate(5.313 2160.741)" fill="#4d9fff" opacity="0.536"/>
      <g id="_032-disc" data-name="032-disc" transform="translate(-17.001 1116.203)">
        <path id="Path_45" data-name="Path 45" d="M341.39,58.611a199.955,199.955,0,1,0,0,282.778,199.845,199.845,0,0,0,0-282.778ZM200,367.108c-92.143,0-167.108-74.964-167.108-167.108S107.858,32.892,200,32.892,367.108,107.857,367.108,200,292.143,367.108,200,367.108Z" transform="translate(0 0)" fill="#4d9fff"/>
        <path id="Path_46" data-name="Path 46" d="M241.85,192.057a49.793,49.793,0,1,0,49.794,49.793A49.849,49.849,0,0,0,241.85,192.057Zm0,66.739A16.946,16.946,0,1,1,258.8,241.85,16.965,16.965,0,0,1,241.85,258.8Z" transform="translate(-41.85 -41.851)" fill="#4d9fff"/>
        <path id="Path_47" data-name="Path 47" d="M251.148,96.057a16.424,16.424,0,0,0,0,32.848,92.131,92.131,0,0,1,92.027,92.027,16.424,16.424,0,1,0,32.848,0A125.016,125.016,0,0,0,251.148,96.057Z" transform="translate(-51.148 -20.932)" fill="#4d9fff"/>
        <path id="Path_48" data-name="Path 48" d="M220.932,343.175A92.131,92.131,0,0,1,128.9,251.148a16.424,16.424,0,0,0-32.848,0A125.016,125.016,0,0,0,220.932,376.022a16.424,16.424,0,0,0,0-32.848Z" transform="translate(-20.931 -51.148)" fill="#4d9fff"/>
      </g>
      <g id="_032-disc-2" data-name="032-disc" transform="matrix(0.545, -0.839, 0.839, 0.545, 1279, 2567.537)">
        <path id="Path_45-2" data-name="Path 45" d="M190.39,32.686a111.513,111.513,0,1,0,0,157.7,111.451,111.451,0,0,0,0-157.7ZM111.538,204.732a93.194,93.194,0,1,1,93.194-93.194,93.3,93.3,0,0,1-93.194,93.194Z" transform="translate(0 0)" fill="#4d9fff"/>
        <path id="Path_46-2" data-name="Path 46" d="M219.826,192.057A27.769,27.769,0,1,0,247.6,219.826,27.8,27.8,0,0,0,219.826,192.057Zm0,37.22a9.45,9.45,0,1,1,9.45-9.45A9.461,9.461,0,0,1,219.826,229.277Z" transform="translate(-108.288 -108.289)" fill="#4d9fff"/>
        <path id="Path_47-2" data-name="Path 47" d="M243.884,96.057a9.159,9.159,0,0,0,0,18.319A51.381,51.381,0,0,1,295.206,165.7a9.159,9.159,0,1,0,18.319,0A69.72,69.72,0,0,0,243.884,96.057Z" transform="translate(-132.345 -54.161)" fill="#4d9fff"/>
        <path id="Path_48-2" data-name="Path 48" d="M165.7,295.206a51.381,51.381,0,0,1-51.322-51.322,9.159,9.159,0,0,0-18.319,0A69.72,69.72,0,0,0,165.7,313.525a9.159,9.159,0,0,0,0-18.319Z" transform="translate(-54.16 -132.346)" fill="#4d9fff"/>
      </g>
      <g id="_032-disc-3" data-name="032-disc" transform="translate(1403.923 957.203)">
        <path id="Path_45-3" data-name="Path 45" d="M102.549,17.605a60.063,60.063,0,1,0,0,84.942,60.03,60.03,0,0,0,0-84.942ZM60.077,110.273a50.2,50.2,0,1,1,50.2-50.2,50.253,50.253,0,0,1-50.2,50.2Z" transform="translate(0)" fill="#4d9fff"/>
        <path id="Path_46-3" data-name="Path 46" d="M207.014,192.057a14.957,14.957,0,1,0,14.957,14.957A14.974,14.974,0,0,0,207.014,192.057Zm0,20.047a5.09,5.09,0,1,1,5.09-5.09A5.1,5.1,0,0,1,207.014,212.1Z" transform="translate(-146.937 -146.938)" fill="#4d9fff"/>
        <path id="Path_47-3" data-name="Path 47" d="M239.658,96.057a4.933,4.933,0,0,0,0,9.867A27.675,27.675,0,0,1,267.3,133.567a4.933,4.933,0,1,0,9.867,0A37.553,37.553,0,0,0,239.658,96.057Z" transform="translate(-179.58 -73.491)" fill="#4d9fff"/>
        <path id="Path_48-3" data-name="Path 48" d="M133.567,267.3a27.675,27.675,0,0,1-27.643-27.643,4.933,4.933,0,0,0-9.867,0,37.553,37.553,0,0,0,37.51,37.51,4.933,4.933,0,0,0,0-9.867Z" transform="translate(-73.49 -179.581)" fill="#4d9fff"/>
      </g>
      <g id="_032-disc-4" data-name="032-disc" transform="translate(449.923 1823.424)">
        <path id="Path_45-4" data-name="Path 45" d="M102.549,17.605a60.063,60.063,0,1,0,0,84.942,60.03,60.03,0,0,0,0-84.942ZM60.077,110.273a50.2,50.2,0,1,1,50.2-50.2,50.253,50.253,0,0,1-50.2,50.2Z" transform="translate(0)" fill="#4d9fff"/>
        <path id="Path_46-4" data-name="Path 46" d="M207.014,192.057a14.957,14.957,0,1,0,14.957,14.957A14.974,14.974,0,0,0,207.014,192.057Zm0,20.047a5.09,5.09,0,1,1,5.09-5.09A5.1,5.1,0,0,1,207.014,212.1Z" transform="translate(-146.937 -146.938)" fill="#4d9fff"/>
        <path id="Path_47-4" data-name="Path 47" d="M239.658,96.057a4.933,4.933,0,0,0,0,9.867A27.675,27.675,0,0,1,267.3,133.567a4.933,4.933,0,1,0,9.867,0A37.553,37.553,0,0,0,239.658,96.057Z" transform="translate(-179.58 -73.491)" fill="#4d9fff"/>
        <path id="Path_48-4" data-name="Path 48" d="M133.567,267.3a27.675,27.675,0,0,1-27.643-27.643,4.933,4.933,0,0,0-9.867,0,37.553,37.553,0,0,0,37.51,37.51,4.933,4.933,0,0,0,0-9.867Z" transform="translate(-73.49 -179.581)" fill="#4d9fff"/>
      </g>
      <g id="_032-disc-5" data-name="032-disc" transform="translate(37.923 175.071)">
        <path id="Path_45-5" data-name="Path 45" d="M102.549,17.605a60.063,60.063,0,1,0,0,84.942,60.03,60.03,0,0,0,0-84.942ZM60.077,110.273a50.2,50.2,0,1,1,50.2-50.2,50.253,50.253,0,0,1-50.2,50.2Z" transform="translate(0)" fill="#4d9fff"/>
        <path id="Path_46-5" data-name="Path 46" d="M207.014,192.057a14.957,14.957,0,1,0,14.957,14.957A14.974,14.974,0,0,0,207.014,192.057Zm0,20.047a5.09,5.09,0,1,1,5.09-5.09A5.1,5.1,0,0,1,207.014,212.1Z" transform="translate(-146.937 -146.938)" fill="#4d9fff"/>
        <path id="Path_47-5" data-name="Path 47" d="M239.658,96.057a4.933,4.933,0,0,0,0,9.867A27.675,27.675,0,0,1,267.3,133.567a4.933,4.933,0,1,0,9.867,0A37.553,37.553,0,0,0,239.658,96.057Z" transform="translate(-179.58 -73.491)" fill="#4d9fff"/>
        <path id="Path_48-5" data-name="Path 48" d="M133.567,267.3a27.675,27.675,0,0,1-27.643-27.643,4.933,4.933,0,0,0-9.867,0,37.553,37.553,0,0,0,37.51,37.51,4.933,4.933,0,0,0,0-9.867Z" transform="translate(-73.49 -179.581)" fill="#4d9fff"/>
      </g>
    </g>
  </g>
</svg>
