<svg xmlns="http://www.w3.org/2000/svg" xmlns:xlink="http://www.w3.org/1999/xlink" width="30" height="30" viewBox="0 0 30 30">
  <defs>
    <clipPath id="clip-path">
      <circle id="Ellipse_386" data-name="Ellipse 386" cx="15" cy="15" r="15" transform="translate(1319 1070)" fill="#fff"/>
    </clipPath>
    <clipPath id="clip-path-2">
      <path id="Path_1449" data-name="Path 1449" d="M-460.432,671.325h-.042a2.638,2.638,0,0,1-1.295-.394,2.986,2.986,0,0,1-1.315.394.221.221,0,0,1-.042,0c0,.069,0,.14.007.205a3.615,3.615,0,0,0,.123.72,3.515,3.515,0,0,0,1.216,1.838,3.52,3.52,0,0,0,1.217-1.839,3.625,3.625,0,0,0,.123-.72C-460.435,671.458-460.431,671.375-460.432,671.325Z" transform="translate(463.125 -670.933)" fill="#fff" stroke="#c09300" stroke-width="0.905"/>
    </clipPath>
  </defs>
  <g id="Mask_Group_56" data-name="Mask Group 56" transform="translate(-1319 -1070)" clip-path="url(#clip-path)">
    <g id="Flag_of_Egypt" transform="translate(1312 1070)">
      <path id="Path_1420" data-name="Path 1420" d="M0,0H45V30H0Z"/>
      <path id="Path_1421" data-name="Path 1421" d="M0,0H45V20H0Z" fill="#fff"/>
      <path id="Path_1422" data-name="Path 1422" d="M0,0H45V10H0Z" fill="#ce1126"/>
      <g id="Group_1370" data-name="Group 1370" transform="translate(19.035 10.28)">
        <path id="Path_1423" data-name="Path 1423" d="M40.071,143.743l3.424,3.179-.244-5.773c-.036-.875-.8-.674-1.349-.359a2.062,2.062,0,0,1-1.872.122,2.062,2.062,0,0,1-1.872-.122c-.552-.316-1.313-.516-1.348.359l-.244,5.773Z" transform="translate(-36.565 -138.903)" fill="#fff" stroke="#c09300" stroke-linejoin="round" stroke-width="1.27"/>
        <path id="a" d="M381.333,246.486,381.1,252.1l-.4.358.244-5.773a1.2,1.2,0,0,1,.395-.2Zm.481.4-.2,4.7-.4.411.244-5.424c.079.079.316.273.359.316Zm.438.358-.158,3.918-.323.315.2-4.47C382.051,247.089,382.209,247.2,382.252,247.247Zm.474.2-.158,3.339-.316.256.158-3.717A1.146,1.146,0,0,0,382.725,247.448Zm.437,0-.115,2.783-.323.316.122-3.063A.83.83,0,0,0,383.163,247.448Z" transform="translate(-380.695 -244.442)" fill="#c09300"/>
        <path id="Path_1424" data-name="Path 1424" d="M.638,5.974.4.358,0,0,.244,5.773a1.2,1.2,0,0,0,.394.2Zm.481-.4-.2-4.7L.517.464.761,5.888c.079-.079.316-.272.359-.315Zm.437-.358L1.4,1.3,1.076.98l.2,4.47c.079-.079.236-.194.28-.237Zm.473-.2L1.873,1.674l-.316-.256.158,3.717A1.147,1.147,0,0,1,2.03,5.013Zm.437,0L2.353,2.23,2.03,1.914l.122,3.063a.831.831,0,0,1,.316.036Z" transform="translate(6.93 8.019) rotate(180)" fill="#c09300" stroke="#c09300" stroke-width="1"/>
        <path id="Path_1425" data-name="Path 1425" d="M93.884,217.626l.481,2.188-.158.158-.165-.122-.273-1.951.115,1.951-.158.2-.158-.2.115-1.951-.273,1.951-.165.122-.158-.158.481-2.188h.316Z" transform="translate(-90.261 -212.153)" fill="#c09300" stroke="#c09300" stroke-width="1.074"/>
        <g id="b" transform="translate(1.435 4.512)">
          <path id="Path_1426" data-name="Path 1426" d="M118.869-7.087,117.915-3.7l1.313.2.559-2.546-.918-1.04Z" transform="translate(-117.915 7.087)" fill="#fff" stroke="#c09300" stroke-linejoin="round" stroke-width="1.189"/>
          <path id="Path_1427" data-name="Path 1427" d="M130.684,10.07l.115.28.62-.592" transform="translate(-130.046 -8.915)" fill="none" stroke="#c09300" stroke-linejoin="round" stroke-width="1.27"/>
          <path id="Path_1428" data-name="Path 1428" d="M125.527,1.993l.13,1.217.395-.516m-.158.2.215.744m.084-.273-.436.662m.136.661-.139-.66-.122-.671-.292.4-.128-.456-.409.419.208.763.287-.472.158.481.295-.458" transform="translate(-124.459 -1.539)" fill="none" stroke="#c09300" stroke-linejoin="round" stroke-width="1.27"/>
          <path id="Path_1429" data-name="Path 1429" d="M123.5,51.971l.265-.372.173.573.237-.4.158.481" transform="translate(-123.225 -48.664)" fill="none" stroke="#c09300" stroke-linejoin="round" stroke-width="1.27"/>
        </g>
        <g id="Group_1365" data-name="Group 1365" transform="translate(5.495 8.098) rotate(180)">
          <path id="Path_1430" data-name="Path 1430" d="M.954,3.586,0,.2,1.313,0l.559,2.546L.954,3.586Z" transform="translate(0 0)" fill="#fff" stroke="#c09300" stroke-linejoin="round" stroke-width="1.189"/>
          <path id="Path_1431" data-name="Path 1431" d="M0,.28.115,0l.62.592" transform="translate(0.638 2.152)" fill="none" stroke="#c09300" stroke-linejoin="round" stroke-width="1.27"/>
          <path id="Path_1432" data-name="Path 1432" d="M.724,2.695l.13-1.217.395.516m-.158-.2.215-.744m.084.273L.954.661M1.09,0,.951.66l-.122.671L.537.936l-.128.456L0,.972.208.21.495.681.653.2.947.659" transform="translate(0.344 0.437)" fill="none" stroke="#c09300" stroke-linejoin="round" stroke-width="1.27"/>
          <path id="Path_1433" data-name="Path 1433" d="M0,.28.265.652.438.079l.237.4L.832,0" transform="translate(0.279)" fill="none" stroke="#c09300" stroke-linejoin="round" stroke-width="1.27"/>
        </g>
        <g id="Group_1367" data-name="Group 1367" transform="translate(0.438 7.692)">
          <path id="Path_1434" data-name="Path 1434" d="M101,63.751a10.566,10.566,0,0,0,2.511-.237c.237-.043.237-.165.237-.323.237-.079.115-.359.28-.359-.165.043-.2-.28-.4-.237,0-.28-.28-.316-.516-.237a7.948,7.948,0,0,1-2.109.194,9.859,9.859,0,0,1-2.109-.194c-.237-.079-.516-.043-.516.237-.2-.043-.237.28-.4.237.165,0,.043.28.28.359,0,.158,0,.28.244.323a10.458,10.458,0,0,0,2.5.237Z" transform="translate(-97.975 -62.034)" fill="#fff" stroke="#c09300" stroke-linecap="round" stroke-linejoin="round" stroke-width="2.378"/>
          <path id="Path_1435" data-name="Path 1435" d="M110.623,56.728a4.023,4.023,0,0,0,.961.043c.158,0,.272.273-.043.316a3.777,3.777,0,0,1-.954-.043c-.2-.036-.638-.115-.918-.194-.28-.122-.079-.358.079-.323a5.267,5.267,0,0,0,.875.2Zm2.711,0a3.979,3.979,0,0,1-.954.043c-.165,0-.28.273.036.316a3.776,3.776,0,0,0,.954-.043c.2-.036.638-.115.918-.194.28-.122.079-.358-.079-.323a5.266,5.266,0,0,1-.875.2Z" transform="translate(-108.952 -56.523)" fill="#fff" stroke="#c09300" stroke-linecap="round" stroke-linejoin="round" stroke-width="1.27"/>
          <path id="Path_1436" data-name="Path 1436" d="M105.822,57.377a.276.276,0,0,0-.28.394c.036-.079.2-.079.237-.158.043-.122-.036-.122.043-.237Zm.954.733c0-.158.158-.138.158-.3,0-.079-.043-.2-.122-.2a.17.17,0,0,0-.158.158C106.618,57.93,106.776,57.953,106.776,58.111Zm1.135-.454c.237,0,.213.316.1.473,0-.115-.2-.158-.2-.237C107.809,57.772,107.99,57.772,107.911,57.657Zm2.6-.279a.276.276,0,0,1,.28.394c-.036-.079-.2-.079-.237-.158-.043-.122.036-.122-.043-.237Zm-.954.733c0-.158-.158-.138-.158-.3,0-.079.043-.2.122-.2a.17.17,0,0,1,.158.158C109.717,57.93,109.559,57.953,109.559,58.111Zm-1.135-.454c-.237,0-.213.316-.1.473,0-.115.2-.158.2-.237,0-.122-.181-.122-.1-.237Z" transform="translate(-105.14 -57.331)" fill="#fff" stroke="#c09300" stroke-linecap="round" stroke-linejoin="round" stroke-width="1.27"/>
          <path id="Path_1437" data-name="Path 1437" d="M113.18,59.039a.389.389,0,0,1,.237.079l-.237-.079Zm.394.122a.884.884,0,0,1,.28.079l-.28-.079Zm1.435.158a.665.665,0,0,0-.28.036l.279-.036Zm-.437,0a.316.316,0,0,0-.28,0h.279Zm3.142-.279a.407.407,0,0,0-.237.079Zm-.395.122a.884.884,0,0,0-.28.079l.28-.079Zm-1.435.158a.665.665,0,0,1,.28.036l-.28-.036Zm.437,0a.316.316,0,0,1,.28,0h-.28Z" transform="translate(-112.42 -58.913)" fill="#fff" stroke="#c09300" stroke-linecap="round" stroke-linejoin="round" stroke-width="0.891"/>
          <g id="Group_1366" data-name="Group 1366" transform="translate(0.588 0.532)">
            <path id="Path_1438" data-name="Path 1438" d="M111.177,69.886a.04.04,0,0,1-.034-.051c.008-.03.033-.048.056-.04s.041.032.042.042-.014.038-.02.038a.015.015,0,0,0-.009.005A.042.042,0,0,1,111.177,69.886Zm2.746.2a.057.057,0,0,1-.026-.036.066.066,0,0,1,.046-.051.091.091,0,0,1,.042.022.041.041,0,0,1-.008.06.076.076,0,0,1-.055.005Zm.018.124a.039.039,0,0,1-.03-.041c0-.024,0-.028.026-.042l.018-.01.017.008c.024.011.035.022.036.038a.049.049,0,0,1-.032.044.033.033,0,0,1-.035,0Z" transform="translate(-111.071 -69.661)" fill="#c09300"/>
            <path id="Path_1439" data-name="Path 1439" d="M110.06,67.162a.128.128,0,0,0-.055.023c-.032.008-.07.028-.1.006s-.072,0-.077.036a.054.054,0,0,0,.081.03c.021-.027.077-.043.083,0-.023.035-.02.08-.039.117a.16.16,0,0,1-.025.064.127.127,0,0,0-.067.014.106.106,0,0,0-.081.044.233.233,0,0,0-.045.094c.005.036.047.047.078.048s.067.021.1.031c.054.012.105.032.159.044.079.024.162.035.242.056a.124.124,0,0,0,.025.006c.033.007.05-.029.053-.056.016-.058.029-.117.045-.175.011-.023.025-.076-.02-.064a.182.182,0,0,1-.08.041c-.044,0-.019.047,0,.066a.119.119,0,0,1-.025.088c-.026.016-.059,0-.086-.009s-.086-.014-.059-.053c.01-.029.01-.06.022-.089a.4.4,0,0,0,.023-.1c-.018-.039-.049.013-.073.017s-.08.017-.047.047.007.06,0,.088-.042.048-.073.039-.075-.025-.048-.059c.006-.029.016-.057.022-.086s.022-.068.034-.1a.289.289,0,0,1,.031-.088c0-.034.024-.064.023-.1C110.078,67.168,110.07,67.162,110.06,67.162Zm-.18.362a.018.018,0,0,1,.011,0c.012.005.013.015,0,.027a.042.042,0,0,1-.014.009c-.023,0-.03-.005-.031-.014s0-.01.017-.017Zm-.052.251c-.025-.023-.021-.04.016-.068.016-.012.025-.01.043.006s.029.041,0,.063a.039.039,0,0,1-.031.013A.036.036,0,0,1,109.828,67.775Zm.152.046a.043.043,0,0,1-.031-.054c.006-.022.01-.024.042-.024s.043.006.043.037,0,.022-.01.03a.054.054,0,0,1-.044.011Zm4.455,0a.027.027,0,0,1-.014-.026c0-.021.012-.036.037-.047s.048-.013.061.009.016.042,0,.063-.013.012-.039.012S114.449,67.836,114.436,67.825Zm-4.253.057a.037.037,0,0,1-.028-.04c0-.017,0-.019.013-.028a.067.067,0,0,1,.029-.012.032.032,0,0,1,.029.007c.028.019.033.038.017.057A.051.051,0,0,1,110.183,67.883Zm1.1.049c0-.005-.013-.008-.014-.014a.315.315,0,0,1,.012-.082.483.483,0,0,1,.01-.079c.009-.046.009-.094.02-.14a.262.262,0,0,1,.01-.07c.008-.036,0-.074.011-.109,0-.013.014-.049.028-.028a.458.458,0,0,0,.071.076c.022.013,0,.031-.013.037a.047.047,0,0,0-.024.051.618.618,0,0,0-.012.062c0,.031,0,.063-.008.094a.491.491,0,0,0-.009.094c0,.02-.009.038-.008.058a.084.084,0,0,1-.02.059A.047.047,0,0,1,111.279,67.932Zm1.485-.49a.7.7,0,0,0-.067.061c-.03.022.024.035.031.055a.468.468,0,0,1,.009.091.229.229,0,0,1,.011.086c0,.031-.043.025-.061.042s-.034.035-.053.052a.208.208,0,0,0-.017.081c0,.022-.015.047,0,.067l.006.009c.005.007.017,0,.025,0a.215.215,0,0,0,.075-.008,1.448,1.448,0,0,1,.183-.014c.037,0,.073-.012.111-.011s.043-.025.042-.048c-.017-.033,0-.071-.016-.1a.593.593,0,0,1-.012-.106.03.03,0,0,0-.053-.017c-.017.017-.045.021-.058.042s.031.03.039.053a.261.261,0,0,1,.008.073c.006.03-.026.031-.047.034s-.064.017-.08-.016a.276.276,0,0,1-.011-.075c0-.045-.011-.088-.014-.133s-.012-.109-.016-.164c0-.023,0-.06-.036-.053Zm-.031.413.016,0,0,.019,0,.019-.02.006-.02,0L112.7,67.9c-.011-.008-.008-.019.006-.034A.025.025,0,0,1,112.733,67.854Zm-1.5-.464c-.019.007-.043.035-.062.034-.044,0-.038.046-.006.061a.221.221,0,0,1,0,.044c.006.039-.019.071-.014.111s-.015.086-.017.13-.012.092-.02.138-.035.027-.061.016c0-.018,0-.035,0-.053.011-.041-.022-.053-.055-.058a.042.042,0,0,1-.044-.056c.015-.018.052-.013.075-.016.049.01.047-.056.022-.078s-.06-.045-.072-.078a.119.119,0,0,0-.059-.108.129.129,0,0,0-.116.089c-.023.007-.045.013-.067.022s-.086.07-.038.094c.027.007.11.026.073.064a.078.078,0,0,1-.1.027c-.036,0-.076-.018-.075-.059a.431.431,0,0,0-.023-.113c-.007-.042-.055-.032-.058.006a.067.067,0,0,0-.006.1.141.141,0,0,1-.016.112c-.01.044-.058.045-.092.059-.017.007-.081,0-.058.033a.224.224,0,0,0,.122.016.134.134,0,0,0,.1-.069c.028-.028.075-.013.111-.014s.078.027.116.009c.011-.028.061-.075.077-.027a.061.061,0,0,0,.075.061c.043,0,.027.031.027.056a.107.107,0,0,0,.072.091.094.094,0,0,0,.041,0c.037-.012.078-.028.089-.07a.954.954,0,0,0,.027-.108,1.344,1.344,0,0,0,.022-.17c.014-.052.01-.107.02-.159s.012-.078.016-.117c0-.021-.014-.024-.025-.02Zm-.339.208c.008,0,.012.01.012.027a.037.037,0,0,0,.022.036c.009,0,.008.012,0,.019a.062.062,0,0,1-.034.006.08.08,0,0,1-.062-.023l-.009-.009.014-.009.028-.025C110.879,67.6,110.888,67.6,110.9,67.6Zm3.3-.394a.419.419,0,0,0-.083.012c-.052,0-.078.051-.028.078.03.077.077-.016.125-.009.072.014.078.092.089.15a.761.761,0,0,0,.037.169c.048.053-.036.087-.072.045s-.1-.074-.133-.028c-.045.019-.047.08-.084.1-.06.018-.068-.056-.1-.087s-.086-.045-.131-.059c-.021-.043-.01-.117-.055-.147-.037.015-.106.085-.048.117.056.048-.024.07-.05.1a.257.257,0,0,0-.048.148c-.063.035-.075-.039-.083-.086s-.052-.039-.084-.019c-.048.019-.071.065-.1.1a.941.941,0,0,0,0,.1c.011.041.06.022.091.019.049-.02.069.031.03.061s-.111.016-.1.07a.428.428,0,0,0,.083,0,.148.148,0,0,0,.119-.114c.007-.053.083-.043.125-.055s.115-.019.127.047c.035.037.112.079.152.028a.12.12,0,0,0,.056-.113c-.008-.039.063-.041.081-.019.026.043.108.03.147.006s.051-.085.111-.086c.089-.027.182-.042.269-.075.071-.015-.01-.06-.028-.086-.054-.027-.1.082-.161.028-.047-.036-.044-.1-.061-.156a.373.373,0,0,0-.058-.2.155.155,0,0,0-.127-.042Zm-.341.473a.054.054,0,0,1,.025.009.066.066,0,0,1,.037.048c0,.011,0,.011-.019.019a.1.1,0,0,1-.025.009c-.009,0-.031-.018-.031-.025a.117.117,0,0,0-.006-.023c-.006-.016,0-.016,0-.027s.009-.011.016-.011Zm.327.017a.035.035,0,0,1,.037.019c.009.016,0,.029-.02.039l-.022.008-.019-.011c-.014-.009-.015-.013-.016-.023s.017-.03.039-.031Zm-.447,0c.005,0,.01,0,.017.008a.039.039,0,0,1,.014.03.111.111,0,0,1,0,.031c0,.011,0,.011-.028.011s-.035,0-.034-.033,0-.024.011-.034A.039.039,0,0,1,113.736,67.7Zm-.275.072a.029.029,0,0,1,.022.022c0,.016,0,.023-.012.03a.067.067,0,0,1-.044,0,.031.031,0,0,1-.009-.009c0-.006,0-.009,0-.012s.006-.006.006-.008a.042.042,0,0,1,.008-.014A.027.027,0,0,1,113.461,67.771Zm.462.059a.033.033,0,0,1,.022.008.017.017,0,0,1,0,.028.107.107,0,0,1-.056,0,.01.01,0,0,1-.008-.011c0-.007,0-.011.014-.017a.073.073,0,0,1,.03-.008Zm-.859.241s-.012-.006,0-.011a.07.07,0,0,1,.041-.026.172.172,0,0,0,.069-.056c0-.017.021-.026.021-.043a.285.285,0,0,0,0-.071.088.088,0,0,0-.041-.049c-.013-.01-.034-.013-.038-.031s.013-.03.018-.045.021-.043.033-.064.033,0,.04.013a.162.162,0,0,1,.023.045.138.138,0,0,1,.034.058.106.106,0,0,1,.018.048c0,.021.012.039.011.06a.217.217,0,0,1-.01.084c-.007.015-.021.023-.03.037a.174.174,0,0,1-.054.037c-.014,0-.023.021-.041.017a.434.434,0,0,1-.077,0s-.008,0-.006,0Zm-.342.023c-.012-.012-.015-.018-.015-.03s0-.017.014-.029.033-.023.07,0,.048.02.052.007.024-.024.044-.024a.041.041,0,0,1,.03.01c.013.01.013.011.014.034s0,.024-.015.037a.031.031,0,0,1-.033.011.038.038,0,0,1-.039-.029c0-.012-.007-.015-.01-.007a.019.019,0,0,1-.012.007.113.113,0,0,0-.04.025.038.038,0,0,1-.026.007.034.034,0,0,1-.034-.015Zm-.991-.445a.078.078,0,0,0-.073.061c.008.038.039.074.019.114.014.051-.038.07-.073.041a.721.721,0,0,0-.064-.145c-.04-.011-.058.053-.086.075.014.038.055.072.059.119a.12.12,0,0,1-.058.12c-.034.033-.081.021-.123.028-.051.03.038.041.061.042a.172.172,0,0,0,.145-.041c.038-.018.035-.085.081-.092.079,0,.158.012.238.014.042.01.108-.005.137.027a.134.134,0,0,0,.092.111c.025.007.051-.024.077-.03.048-.015.034-.075.063-.1.083,0,.166,0,.248,0,.016,0,.02-.022.031-.031,0-.032,0-.064-.008-.1s0-.092-.027-.127c-.041-.011-.077.027-.119.03a.139.139,0,0,0-.087.116c-.027.045-.071-.008-.056-.045a.246.246,0,0,0,0-.05c-.025-.03-.07-.02-.1-.025-.051,0-.1-.009-.152-.008a.724.724,0,0,1-.134-.008c-.052,0-.044-.052-.053-.088A.051.051,0,0,0,111.732,67.649Zm.1.184a.474.474,0,0,1,.05,0c.022,0,.044-.007.066,0,.049.008.1.006.147.011a.048.048,0,0,1,.031.017c0,.034,0,.069,0,.1,0,.013,0,.03-.008.039a.035.035,0,0,1-.012.006.055.055,0,0,1-.034-.025.346.346,0,0,1,0-.053s0-.012,0-.016a.062.062,0,0,0-.036-.013l-.127-.006a.534.534,0,0,1-.106-.006c-.013,0-.031,0-.039-.017s.005-.03.017-.036a.114.114,0,0,1,.05-.009Zm.564.012c.008,0,.01,0,.014.017l.006.025c0,.006,0,.008-.009.011-.025.009-.049.008-.058,0s0-.022.008-.028A.078.078,0,0,1,112.4,67.846Z" transform="translate(-109.733 -67.162)" fill="#c09300"/>
          </g>
        </g>
        <g id="Group_1368" data-name="Group 1368" transform="translate(2.473)">
          <path id="Path_1440" data-name="Path 1440" d="M431.76,207.974c.033,0-.045-.178-.045-.178.088.09.421.112.421.112-.2-.088-.4-.755-.376-1.286s-.076-.743-.155-.821a1.261,1.261,0,0,0-.633-.2c-.12-.006-.1.09-.1.09a.814.814,0,0,0-.543-.012c-.094.063-.114.376-.045.321.167-.133.312-.012.412.133a1.333,1.333,0,0,1-.045.91,3.06,3.06,0,0,1-.5.886,1.172,1.172,0,0,0,.476-.176l-.067.276a1.7,1.7,0,0,0,.376-.255l.2.21a2.039,2.039,0,0,1,.2-.21A.724.724,0,0,0,431.76,207.974Z" transform="translate(-430.152 -205.6)" fill="#fff" stroke="#c09300" stroke-width="1.218"/>
          <path id="Path_1441" data-name="Path 1441" d="M440,227.158a2.968,2.968,0,0,1-.321,1.055m.5-1.076a4.086,4.086,0,0,1-.188,1.1m.345-1.064a8,8,0,0,0,.055,1.064m.143-1.019a2.958,2.958,0,0,0,.233,1.041" transform="translate(-439.206 -226.06)" fill="none" stroke="#c09300" stroke-width="1.27"/>
          <path id="Path_1442" data-name="Path 1442" d="M433.246,210.438a.4.4,0,0,0-.053-.167c-.1-.145-.245-.267-.412-.133,0,0,.057-.176.178-.182.094-.006.308.071.5.392,0,0-.139-.031-.173,0C433.22,210.4,433.246,210.438,433.246,210.438Z" transform="translate(-432.65 -209.738)" fill="#c09300" stroke="#c09300" stroke-width="0.354"/>
          <path id="Path_1443" data-name="Path 1443" d="M432.358,205.788a.192.192,0,0,1,.063-.1.814.814,0,0,1,.543.012s-.02-.1.1-.09a1.261,1.261,0,0,1,.633.2.4.4,0,0,1,.074.12h0c-.049-.069-.188-.065-.222-.061a.9.9,0,0,0-.157.022.317.317,0,0,0-.112.039c-.021.018-.039.082-.072.082-.053,0-.049-.014-.063-.029s-.027-.053-.045-.051c-.055.01-.143-.033-.255-.121a.341.341,0,0,0-.3-.1.231.231,0,0,0-.188.092Z" transform="translate(-432.244 -205.605)" fill="#c09300" stroke="#c09300" stroke-width="0.354"/>
          <circle id="Ellipse_385" data-name="Ellipse 385" cx="0.059" cy="0.059" r="0.059" transform="translate(0.874 0.195)" fill="#fff"/>
        </g>
        <path id="Path_1444" data-name="Path 1444" d="M421.605,260.236a3.8,3.8,0,0,0,1.492-3.094.636.636,0,0,1-.127.013,2.421,2.421,0,0,1-1.349-.445,2.777,2.777,0,0,1-1.379.445.62.62,0,0,1-.127-.013A3.8,3.8,0,0,0,421.605,260.236Z" transform="translate(-418.141 -254.154)" fill="#fff" stroke="#c09300" stroke-width="1.15"/>
        <path id="Path_1445" data-name="Path 1445" d="M425.488,260.5h-.042a2.666,2.666,0,0,1-1.309-.4,3.017,3.017,0,0,1-1.329.4.237.237,0,0,1-.042,0c0,.07,0,.142.007.207a3.657,3.657,0,0,0,.124.728,3.553,3.553,0,0,0,1.229,1.858,3.559,3.559,0,0,0,1.23-1.859,3.661,3.661,0,0,0,.125-.727C425.484,260.637,425.488,260.553,425.488,260.5Z" transform="translate(-420.662 -257.381)" fill="none" stroke="#c09300" stroke-width="0.916"/>
        <g id="Group_1369" data-name="Group 1369" transform="translate(2.118 2.74)" clip-path="url(#clip-path-2)">
          <path id="Path_1446" data-name="Path 1446" d="M-463.577,670.3h.913v3.215h-.913Z" transform="translate(463.554 -670.329)" fill="#c09300" fill-rule="evenodd"/>
          <path id="Path_1447" data-name="Path 1447" d="M-445.318,670.3h.913v3.215h-.913Z" transform="translate(446.208 -670.329)" fill="#fff" fill-rule="evenodd"/>
          <path id="Path_1448" data-name="Path 1448" d="M-427.059,670.3h.913v3.215h-.913Z" transform="translate(428.863 -670.329)" fill="#c09300" fill-rule="evenodd"/>
        </g>
      </g>
    </g>
  </g>
</svg>
