<svg xmlns="http://www.w3.org/2000/svg" xmlns:xlink="http://www.w3.org/1999/xlink" width="1366" height="3300" viewBox="0 0 1366 3300">
  <defs>
    <clipPath id="clip-path">
      <rect id="ContentLayer" width="1366" height="3300" fill="#fff" stroke="#707070" stroke-width="1" opacity="0"/>
    </clipPath>
  </defs>
  <g id="genre_iconbg" clip-path="url(#clip-path)">
    <g id="IconBg" transform="translate(-98 362.797)" opacity="0.4">
      <circle id="Ellipse_403" data-name="Ellipse 403" cx="37" cy="37" r="37" transform="translate(61 1678.908)" fill="#21a8ae"/>
      <circle id="Ellipse_409" data-name="Ellipse 409" cx="37" cy="37" r="37" transform="translate(1415.5 160.5)" fill="#21a8ae"/>
      <circle id="Ellipse_405" data-name="Ellipse 405" cx="84" cy="84" r="84" transform="translate(1405.5 2197.915)" fill="#21a8ae"/>
      <circle id="Ellipse_401" data-name="Ellipse 401" cx="92.687" cy="92.687" r="92.687" transform="translate(5 564.829)" fill="#21a8ae" opacity="0.5"/>
      <circle id="Ellipse_402" data-name="Ellipse 402" cx="280" cy="280" r="280" transform="translate(1279 727.783)" fill="#21a8ae" opacity="0.487"/>
      <circle id="Ellipse_404" data-name="Ellipse 404" cx="195.5" cy="195.5" r="195.5" transform="translate(-45 2431.513)" fill="#21a8ae" opacity="0.3"/>
      <g id="surface1" transform="matrix(0.423, -0.906, 0.906, 0.423, 1288.773, 1734.819)">
        <path id="Path_1370" data-name="Path 1370" d="M66.495,156.3l29,29.491a9.83,9.83,0,1,1-14.018,13.785l-29-29.493A9.83,9.83,0,1,1,66.495,156.3ZM248.051,31.682,231.37,48.411a19.232,19.232,0,0,1-16.683,5.412l-.384-.061c-.494-.081-.981-.181-1.461-.3L172.726,93.577c1.2,1.308,2.6,2.758,4.05,4.269,6.111,6.355,13.716,14.263,18.519,23.284,8.3,15.583,4.215,27.353-.668,34.484-7.315,10.7-17.618,13.073-25.143,14.8-3.851.885-7.177,1.65-8.583,3.111a9.83,9.83,0,0,1-14.169-13.63c5.462-5.681,12.308-7.254,18.346-8.642,6.6-1.519,10.476-2.581,13.322-6.745,5.587-8.158-1.241-17.9-15.8-33.036-1.325-1.379-2.6-2.706-3.789-3.989l-16.46,16.459a29.522,29.522,0,1,1-13.647-14.158l16.209-16.209c-1.34-1.243-2.729-2.573-4.173-3.964-15.133-14.555-24.88-21.385-33.03-15.8-4.171,2.85-5.233,6.726-6.75,13.328-1.383,6.013-2.95,12.825-8.569,18.277-11.461,11.425-24.523,14.613-36.047,17.426C46.18,125.329,37.4,127.472,30.1,134.766c-6.631,6.629-9.977,14.221-9.942,22.568.094,23.155,6.624,40.895,19.956,54.229,16.825,16.823,39.07,20.432,54.77,20.5h.127c8.295,0,15.844-3.345,22.439-9.942,4.609-4.609,7.421-9.658,9.706-17.428a9.831,9.831,0,1,1,18.863,5.548c-2.159,7.332-5.773,16.891-14.665,25.782-10.271,10.275-22.835,15.7-36.343,15.7l-.207,0c-19.393-.079-47.035-4.7-68.592-26.255C9.267,208.516.615,185.62.5,157.412c-.056-13.587,5.375-26.226,15.7-36.551,11.185-11.185,24.092-14.336,35.481-17.117,10.349-2.525,19.285-4.707,26.869-12.293l.136-.133c1.461-1.406,2.226-4.732,3.111-8.585,1.73-7.524,4.1-17.828,14.809-25.149,7.123-4.878,18.9-8.959,34.48-.663,9.02,4.8,16.929,12.41,23.284,18.521,1.584,1.525,3.1,2.983,4.457,4.223l39.936-39.934a19.388,19.388,0,0,1,4.976-18.715L220.587,4.127a14.023,14.023,0,0,1,19.873,0l7.594,7.62A14.123,14.123,0,0,1,248.051,31.682Zm-122.7,104.474a9.831,9.831,0,1,0-9.831,9.831A9.844,9.844,0,0,0,125.352,136.156Zm0,0" transform="translate(0)" fill="#09b3b5"/>
      </g>
      <g id="surface1-2" data-name="surface1" transform="matrix(0.966, -0.259, 0.259, 0.966, -2.323, 1110.23)">
        <path id="Path_1370-2" data-name="Path 1370" d="M54.336,127.5l23.657,24.058a8.019,8.019,0,1,1-11.435,11.246L42.9,138.749A8.019,8.019,0,1,1,54.336,127.5ZM202.445,25.845,188.836,39.493a15.689,15.689,0,0,1-13.61,4.415l-.313-.05c-.4-.066-.8-.147-1.192-.241L141,76.337c.981,1.067,2.118,2.25,3.3,3.483C149.286,85,155.49,91.456,159.408,98.814c6.768,12.712,3.439,22.314-.545,28.131-5.967,8.731-14.373,10.664-20.511,12.076-3.141.722-5.855,1.346-7,2.538a8.019,8.019,0,0,1-11.559-11.119c4.456-4.634,10.041-5.917,14.966-7.05,5.386-1.239,8.546-2.106,10.868-5.5,4.557-6.655-1.012-14.6-12.886-26.95-1.081-1.125-2.118-2.207-3.091-3.254l-13.428,13.426a24.083,24.083,0,1,1-11.133-11.549l13.223-13.223c-1.094-1.014-2.226-2.1-3.4-3.234-12.345-11.874-20.3-17.445-26.945-12.891-3.4,2.325-4.269,5.486-5.507,10.873C81.327,75.993,80.049,81.55,75.465,86c-9.35,9.32-20,11.921-29.406,14.216-8.294,2.026-15.458,3.774-21.409,9.724-5.41,5.408-8.139,11.6-8.111,18.41.077,18.889,5.4,33.361,16.279,44.238,13.726,13.724,31.872,16.668,44.68,16.721h.1c6.766,0,12.925-2.729,18.3-8.111,3.76-3.76,6.054-7.879,7.918-14.218a8.02,8.02,0,1,1,15.388,4.526,47.216,47.216,0,0,1-11.963,21.033c-8.379,8.382-18.628,12.809-29.648,12.809l-.169,0c-15.82-.064-38.369-3.834-55.955-21.418C7.651,170.1.593,151.423.5,128.412.454,117.328,4.885,107.018,13.31,98.6c9.124-9.124,19.654-11.7,28.944-13.964,8.443-2.06,15.732-3.84,21.919-10.028l.111-.108c1.192-1.147,1.816-3.86,2.538-7,1.412-6.138,3.345-14.543,12.081-20.516,5.811-3.979,15.414-7.309,28.128-.541,7.359,3.918,13.81,10.124,18.994,15.109,1.293,1.244,2.529,2.433,3.636,3.445l32.579-32.577A15.816,15.816,0,0,1,166.3,17.146L180.04,3.367a11.44,11.44,0,0,1,16.212,0l6.195,6.217A11.521,11.521,0,0,1,202.445,25.845ZM102.35,111.072a8.02,8.02,0,1,0-8.02,8.02A8.03,8.03,0,0,0,102.35,111.072Zm0,0" transform="translate(0)" fill="#09b3b5"/>
      </g>
      <g id="surface1-3" data-name="surface1" transform="matrix(0.966, -0.259, 0.259, 0.966, 1344.196, 2726.14)">
        <path id="Path_1370-3" data-name="Path 1370" d="M47.847,112.135l20.805,21.158a7.052,7.052,0,1,1-10.057,9.89L37.789,122.024a7.052,7.052,0,1,1,10.058-9.889ZM178.1,22.73l-11.968,12a13.8,13.8,0,0,1-11.969,3.883l-.276-.044c-.354-.058-.7-.13-1.049-.212l-28.78,28.777c.863.938,1.863,1.979,2.906,3.063,4.384,4.559,9.84,10.233,13.286,16.7,5.952,11.18,3.024,19.624-.479,24.74-5.248,7.679-12.64,9.379-18.038,10.62-2.763.635-5.149,1.184-6.157,2.232a7.053,7.053,0,0,1-10.166-9.778c3.919-4.076,8.83-5.2,13.162-6.2,4.737-1.09,7.516-1.852,9.558-4.839,4.008-5.853-.89-12.844-11.333-23.7-.951-.989-1.863-1.941-2.718-2.862L102.272,88.923a21.18,21.18,0,1,1-9.791-10.157L104.11,67.137c-.962-.891-1.958-1.846-2.994-2.844-10.857-10.442-17.85-15.342-23.7-11.337-2.993,2.045-3.755,4.825-4.843,9.562-.992,4.314-2.116,9.2-6.148,13.113-8.223,8.2-17.593,10.484-25.862,12.5-7.294,1.782-13.595,3.319-18.828,8.552-4.758,4.756-7.158,10.2-7.133,16.191.068,16.612,4.752,29.339,14.317,38.905,12.071,12.07,28.03,14.659,39.294,14.705h.091c5.951,0,11.367-2.4,16.1-7.133,3.307-3.307,5.324-6.929,6.963-12.5a7.053,7.053,0,1,1,13.533,3.981,41.525,41.525,0,0,1-10.521,18.5C87.013,176.7,78,180.593,68.307,180.593h-.149c-13.913-.056-33.744-3.372-49.21-18.836C6.789,149.6.582,133.17.5,112.933c-.04-9.748,3.857-18.815,11.266-26.223C19.79,78.686,29.051,76.425,37.221,74.43c7.425-1.812,13.836-3.377,19.277-8.819l.1-.1c1.049-1.009,1.6-3.395,2.232-6.159,1.241-5.4,2.942-12.79,10.624-18.043,5.11-3.5,13.556-6.428,24.737-.475,6.472,3.446,12.145,8.9,16.7,13.288,1.137,1.094,2.224,2.14,3.2,3.03l28.652-28.65a13.91,13.91,0,0,1,3.57-13.427L158.4,2.961a10.061,10.061,0,0,1,14.258,0L178.1,8.429A10.132,10.132,0,0,1,178.1,22.73ZM90.073,97.683a7.053,7.053,0,1,0-7.053,7.053A7.062,7.062,0,0,0,90.073,97.683Zm0,0" transform="translate(0 0)" fill="#09b3b5"/>
      </g>
      <g id="surface1-4" data-name="surface1" transform="translate(1348.557 577.042) rotate(-70)">
        <path id="Path_1370-4" data-name="Path 1370" d="M31.342,73.045,44.894,86.827a4.594,4.594,0,1,1-6.551,6.442L24.79,79.487a4.594,4.594,0,1,1,6.552-6.441ZM116.19,14.806l-7.8,7.818a8.988,8.988,0,0,1-7.8,2.529l-.179-.029c-.231-.038-.459-.084-.683-.138L80.988,43.732c.562.611,1.213,1.289,1.893,2,2.856,2.97,6.41,6.666,8.655,10.881,3.877,7.282,1.97,12.783-.312,16.116-3.419,5-8.234,6.109-11.75,6.918-1.8.414-3.354.771-4.011,1.454a4.594,4.594,0,0,1-6.622-6.37c2.553-2.655,5.752-3.39,8.574-4.039,3.086-.71,4.9-1.206,6.226-3.152,2.611-3.813-.58-8.367-7.382-15.439-.619-.644-1.213-1.265-1.771-1.864l-7.693,7.692a13.8,13.8,0,1,1-6.378-6.616l7.575-7.575c-.626-.581-1.275-1.2-1.95-1.852-7.072-6.8-11.627-9.994-15.436-7.385-1.949,1.332-2.446,3.143-3.155,6.229-.646,2.81-1.379,5.994-4,8.542C38.089,54.606,31.985,56.1,26.6,57.41c-4.751,1.16-8.856,2.162-12.265,5.571A14.528,14.528,0,0,0,9.688,73.528c.044,10.821,3.1,19.112,9.326,25.343,7.863,7.862,18.259,9.549,25.6,9.579h.059A14.538,14.538,0,0,0,55.156,103.8a17.623,17.623,0,0,0,4.536-8.145,4.594,4.594,0,1,1,8.815,2.593A27.049,27.049,0,0,1,61.654,110.3a23.715,23.715,0,0,1-16.985,7.338h-.1c-9.063-.037-21.981-2.2-32.056-12.27C4.6,97.448.553,86.748.5,73.565A23.706,23.706,0,0,1,7.838,56.483c5.227-5.227,11.259-6.7,16.582-8,4.837-1.18,9.013-2.2,12.557-5.745l.064-.062c.683-.657,1.04-2.211,1.454-4.012.809-3.516,1.916-8.332,6.921-11.753,3.329-2.28,8.831-4.187,16.114-.31,4.216,2.245,7.912,5.8,10.881,8.656.74.713,1.449,1.394,2.083,1.974L93.158,18.569a9.061,9.061,0,0,1,2.325-8.746l7.871-7.894a6.554,6.554,0,0,1,9.287,0l3.549,3.561A6.6,6.6,0,0,1,116.19,14.806ZM58.848,63.631a4.594,4.594,0,1,0-4.594,4.594A4.6,4.6,0,0,0,58.848,63.631Zm0,0" transform="translate(0)" fill="#09b3b5"/>
      </g>
      <g id="surface1-5" data-name="surface1" transform="matrix(0.899, 0.438, -0.438, 0.899, 876.182, 2742.98)">
        <path id="Path_1370-5" data-name="Path 1370" d="M26.294,61.09,37.628,72.617A3.842,3.842,0,1,1,32.149,78L20.814,66.478a3.842,3.842,0,1,1,5.48-5.387ZM97.255,12.383l-6.52,6.539a7.517,7.517,0,0,1-6.521,2.115l-.15-.024c-.193-.032-.384-.071-.571-.116L67.815,36.575c.47.511,1.015,1.078,1.583,1.669,2.388,2.484,5.361,5.575,7.238,9.1,3.243,6.091,1.648,10.691-.261,13.478-2.859,4.183-6.886,5.11-9.827,5.786-1.505.346-2.805.645-3.355,1.216A3.842,3.842,0,0,1,57.655,62.5c2.135-2.22,4.811-2.835,7.171-3.378,2.581-.594,4.095-1.009,5.207-2.636,2.184-3.189-.485-7-6.174-12.912-.518-.539-1.015-1.058-1.481-1.559l-6.434,6.433a11.539,11.539,0,1,1-5.334-5.534l6.335-6.335c-.524-.486-1.067-1.006-1.631-1.549C49.4,29.337,45.59,26.668,42.4,28.85c-1.63,1.114-2.045,2.629-2.638,5.209-.54,2.35-1.153,5.013-3.349,7.144-4.48,4.465-9.585,5.712-14.089,6.811-3.974.971-7.406,1.808-10.257,4.659a12.15,12.15,0,0,0-3.886,8.821c.037,9.05,2.589,15.984,7.8,21.2,6.576,6.575,15.271,7.986,21.407,8.011h.05a12.158,12.158,0,0,0,8.77-3.886A14.739,14.739,0,0,0,50,80a3.842,3.842,0,1,1,7.373,2.169,22.622,22.622,0,0,1-5.732,10.077,19.833,19.833,0,0,1-14.2,6.137h-.081c-7.58-.031-18.384-1.837-26.809-10.262C3.926,81.5.544,72.55.5,61.525A19.826,19.826,0,0,1,6.637,47.239c4.372-4.372,9.417-5.6,13.868-6.69,4.045-.987,7.538-1.84,10.5-4.8l.053-.052c.571-.549.87-1.85,1.216-3.355.676-2.941,1.6-6.968,5.788-9.829,2.784-1.907,7.385-3.5,13.477-.259,3.526,1.877,6.617,4.851,9.1,7.239.619.6,1.212,1.166,1.742,1.651L77.993,15.53a7.578,7.578,0,0,1,1.945-7.315l6.583-6.6a5.481,5.481,0,0,1,7.767,0l2.968,2.978A5.52,5.52,0,0,1,97.255,12.383ZM49.3,53.217a3.842,3.842,0,1,0-3.842,3.842A3.847,3.847,0,0,0,49.3,53.217Zm0,0" transform="translate(-991.925 -170.055) rotate(-93)" fill="#09b3b5"/>
      </g>
    </g>
  </g>
</svg>
