<svg id="_196-hong_kong" data-name="196-hong kong" xmlns="http://www.w3.org/2000/svg" width="30" height="30" viewBox="0 0 30 30">
  <circle id="Ellipse_376" data-name="Ellipse 376" cx="15" cy="15" r="15" fill="#d80027"/>
  <g id="Group_1363" data-name="Group 1363" transform="translate(7.847 7.3)">
    <path id="Path_1381" data-name="Path 1381" d="M222.289,128.628c-.341,1.418-.947,1.148-1.244,2.384a3.261,3.261,0,0,1,1.524-6.341C221.975,127.144,222.594,127.359,222.289,128.628Z" transform="translate(-213.587 -124.579)" fill="#f0f0f0"/>
    <path id="Path_1382" data-name="Path 1382" d="M138.078,187.668c1.243.762.8,1.255,1.883,1.92a3.261,3.261,0,0,1-5.56-3.409C136.569,187.508,136.966,186.986,138.078,187.668Z" transform="translate(-133.919 -182.569)" fill="#f0f0f0"/>
    <path id="Path_1383" data-name="Path 1383" d="M156.965,271.652c1.109-.947,1.44-.372,2.408-1.2a3.261,3.261,0,1,1-4.96,4.234C156.346,273.037,155.973,272.5,156.965,271.652Z" transform="translate(-153.211 -261.907)" fill="#f0f0f0"/>
    <path id="Path_1384" data-name="Path 1384" d="M264.906,275.235c-.558-1.347.091-1.485-.4-2.66A3.261,3.261,0,1,1,267,278.6C266.032,276.251,265.4,276.441,264.906,275.235Z" transform="translate(-256.859 -263.67)" fill="#f0f0f0"/>
    <path id="Path_1385" data-name="Path 1385" d="M280.682,198.216c-1.454.114-1.384-.546-2.652-.446a3.261,3.261,0,1,1,6.5-.51C282,197.459,281.982,198.114,280.682,198.216Z" transform="translate(-269.577 -190.171)" fill="#f0f0f0"/>
  </g>
</svg>
