<svg xmlns="http://www.w3.org/2000/svg" xmlns:xlink="http://www.w3.org/1999/xlink" width="1366" height="3300" viewBox="0 0 1366 3300">
  <defs>
    <clipPath id="clip-path">
      <rect id="ContentLayer" width="1366" height="3300" fill="#fff" stroke="#707070" stroke-width="1" opacity="0"/>
    </clipPath>
    <clipPath id="clip-path-2">
      <rect id="Rectangle_2591" data-name="Rectangle 2591" width="270.76" height="270.76" fill="#ff4858"/>
    </clipPath>
    <clipPath id="clip-path-3">
      <rect id="Rectangle_2637" data-name="Rectangle 2637" width="132.784" height="132.784" fill="#ff4858"/>
    </clipPath>
    <clipPath id="clip-path-4">
      <rect id="Rectangle_2638" data-name="Rectangle 2638" width="72.735" height="72.735" fill="#ff4858"/>
    </clipPath>
    <clipPath id="clip-path-5">
      <rect id="Rectangle_2652" data-name="Rectangle 2652" width="270.76" height="270.76" transform="translate(0 0)" fill="#ff4858"/>
    </clipPath>
    <clipPath id="clip-path-6">
      <rect id="Rectangle_2653" data-name="Rectangle 2653" width="132.784" height="132.784" transform="translate(0 0)" fill="#ff4858"/>
    </clipPath>
  </defs>
  <g id="marketshare_iconbg" clip-path="url(#clip-path)">
    <g id="IconBg" transform="translate(-98 247.172)" opacity="0.4">
      <circle id="Ellipse_403" data-name="Ellipse 403" cx="37" cy="37" r="37" transform="translate(61 1865.551)" fill="#f44b69"/>
      <circle id="Ellipse_405" data-name="Ellipse 405" cx="52.5" cy="52.5" r="52.5" transform="translate(1415.5 253.185)" fill="#f44b69"/>
      <circle id="Ellipse_401" data-name="Ellipse 401" cx="185.687" cy="185.687" r="185.687" transform="translate(1182 1202.551)" fill="#f44b69" opacity="0.5"/>
      <circle id="Ellipse_404" data-name="Ellipse 404" cx="123.148" cy="123.148" r="123.148" transform="translate(11.852 778.703)" fill="#f44b69" opacity="0.5"/>
      <g id="share123" transform="matrix(0.719, -0.695, 0.695, 0.719, 1170.519, 752.352)" clip-path="url(#clip-path-2)">
        <g id="Group_1315" data-name="Group 1315" transform="translate(7.88 0.053)">
          <g id="Group_1314" data-name="Group 1314">
            <g id="Group_1313" data-name="Group 1313">
              <path id="Path_1366" data-name="Path 1366" d="M267.257,194.233a59.33,59.33,0,0,0-101.588-21.418L131.4,150.657a58.72,58.72,0,0,0,0-30.461l34.321-22.158a59.243,59.243,0,1,0-14.384-38.71,57.834,57.834,0,0,0,2.01,15.23L119.026,96.717a59.282,59.282,0,1,0,0,77.42L153.347,196.3a59.307,59.307,0,0,0,57.272,74.512h1.639a13.226,13.226,0,1,0-.74-26.441,32.812,32.812,0,0,1-29.879-48.229,32.812,32.812,0,0,1,57.96,30.778,13.224,13.224,0,1,0,23.374,12.375,58.617,58.617,0,0,0,4.284-45.056ZM210.619,26.541a32.84,32.84,0,1,1-32.84,32.84A32.906,32.906,0,0,1,210.619,26.541ZM74.182,168.267a32.814,32.814,0,1,1,32.84-32.787A32.906,32.906,0,0,1,74.182,168.267Z" transform="translate(-14.9 -0.1)" fill="#ff4858"/>
            </g>
          </g>
        </g>
      </g>
      <g id="share123-2" data-name="share123" transform="matrix(0.719, -0.695, 0.695, 0.719, 61, 1367.189)" clip-path="url(#clip-path-3)">
        <g id="Group_1468" data-name="Group 1468" transform="translate(3.864 0.026)">
          <g id="Group_1467" data-name="Group 1467">
            <g id="Group_1466" data-name="Group 1466">
              <path id="Path_1499" data-name="Path 1499" d="M138.659,95.305a29.1,29.1,0,0,0-49.82-10.5L72.033,73.935a28.8,28.8,0,0,0,0-14.938L88.865,48.13a29.053,29.053,0,1,0-7.054-18.984,28.363,28.363,0,0,0,.986,7.469L65.965,47.482a29.072,29.072,0,1,0,0,37.968L82.8,96.317a29.085,29.085,0,0,0,28.087,36.542h.8a6.486,6.486,0,1,0-.363-12.967A16.091,16.091,0,0,1,96.671,96.239,16.092,16.092,0,0,1,125.1,111.333a6.485,6.485,0,1,0,11.463,6.069,28.746,28.746,0,0,0,2.1-22.1ZM110.883,13.067A16.105,16.105,0,1,1,94.778,29.172,16.138,16.138,0,0,1,110.883,13.067Zm-66.911,69.5A16.092,16.092,0,1,1,60.078,66.492,16.138,16.138,0,0,1,43.972,82.571Z" transform="translate(-14.9 -0.1)" fill="#ff4858"/>
            </g>
          </g>
        </g>
      </g>
      <g id="share123-3" data-name="share123" transform="matrix(0.94, 0.342, -0.342, 0.94, 122.877, 384.577)" clip-path="url(#clip-path-4)">
        <g id="Group_1471" data-name="Group 1471" transform="translate(2.117 0.014)">
          <g id="Group_1470" data-name="Group 1470">
            <g id="Group_1469" data-name="Group 1469">
              <path id="Path_1500" data-name="Path 1500" d="M82.691,52.25A15.938,15.938,0,0,0,55.4,46.5L46.2,40.544a15.774,15.774,0,0,0,0-8.183l9.22-5.952a15.914,15.914,0,1,0-3.864-10.4,15.536,15.536,0,0,0,.54,4.091l-9.22,5.952a15.925,15.925,0,1,0,0,20.8l9.22,5.952A15.932,15.932,0,0,0,67.476,72.821h.44a3.553,3.553,0,0,0-.2-7.1,8.814,8.814,0,0,1-8.026-12.956,8.814,8.814,0,0,1,15.57,8.268,3.552,3.552,0,1,0,6.279,3.324,15.746,15.746,0,0,0,1.151-12.1ZM67.476,7.2a8.822,8.822,0,1,1-8.822,8.822A8.84,8.84,0,0,1,67.476,7.2ZM30.825,45.275a8.815,8.815,0,1,1,8.822-8.808A8.84,8.84,0,0,1,30.825,45.275Z" transform="translate(-14.9 -0.1)" fill="#ff4858"/>
            </g>
          </g>
        </g>
      </g>
      <g id="Group_1534" data-name="Group 1534" transform="translate(-69.166 2082.103)">
        <ellipse id="Ellipse_440" data-name="Ellipse 440" cx="185.687" cy="185.687" rx="185.687" ry="185.687" transform="translate(1441.357 326.351)" fill="#f44b69" opacity="0.5"/>
        <g id="share123-4" data-name="share123" transform="matrix(-0.719, -0.695, 0.695, -0.719, 186.768, 436.854)" clip-path="url(#clip-path-5)">
          <g id="Group_1530" data-name="Group 1530" transform="translate(7.88 0)">
            <g id="Group_1529" data-name="Group 1529" transform="translate(0)">
              <g id="Group_1528" data-name="Group 1528">
                <path id="Path_2113" data-name="Path 2113" d="M252.357,76.574A59.33,59.33,0,0,1,150.769,97.992L116.5,120.15a58.72,58.72,0,0,1,0,30.461l34.321,22.158a59.243,59.243,0,1,1-14.384,38.71,57.834,57.834,0,0,1,2.01-15.23L104.126,174.09a59.282,59.282,0,1,1,0-77.42l34.321-22.158A59.307,59.307,0,0,1,195.719,0h1.639a13.226,13.226,0,0,1-.74,26.441A32.812,32.812,0,0,0,166.74,74.671,32.812,32.812,0,0,0,224.7,43.893a13.224,13.224,0,1,1,23.374-12.375,58.617,58.617,0,0,1,4.284,45.056ZM195.719,244.266a32.84,32.84,0,1,0-32.84-32.84A32.906,32.906,0,0,0,195.719,244.266ZM59.282,102.54a32.814,32.814,0,1,0,32.84,32.787A32.906,32.906,0,0,0,59.282,102.54Z" fill="#ff4858"/>
              </g>
            </g>
          </g>
        </g>
        <g id="share123-5" data-name="share123" transform="matrix(-0.719, -0.695, 0.695, -0.719, 1534.804, -64.99)" clip-path="url(#clip-path-6)">
          <g id="Group_1533" data-name="Group 1533" transform="translate(3.864 0)">
            <g id="Group_1532" data-name="Group 1532" transform="translate(0)">
              <g id="Group_1531" data-name="Group 1531">
                <path id="Path_2114" data-name="Path 2114" d="M123.759,37.553a29.1,29.1,0,0,1-49.82,10.5L57.133,58.923a28.8,28.8,0,0,1,0,14.938L73.965,84.728a29.053,29.053,0,1,1-7.054,18.984,28.363,28.363,0,0,1,.986-7.469L51.065,85.376a29.072,29.072,0,1,1,0-37.968L67.9,36.542A29.085,29.085,0,0,1,95.983,0h.8a6.486,6.486,0,0,1-.363,12.967A16.091,16.091,0,0,0,81.771,36.619,16.092,16.092,0,0,0,110.2,21.526a6.485,6.485,0,1,1,11.463-6.069,28.746,28.746,0,0,1,2.1,22.1ZM95.983,119.791a16.105,16.105,0,1,0-16.105-16.105A16.138,16.138,0,0,0,95.983,119.791Zm-66.911-69.5A16.092,16.092,0,1,0,45.178,66.366,16.138,16.138,0,0,0,29.072,50.287Z" fill="#ff4858"/>
              </g>
            </g>
          </g>
        </g>
      </g>
    </g>
  </g>
</svg>
