<svg xmlns="http://www.w3.org/2000/svg" width="155.049" height="12" viewBox="0 0 155.049 12">
  <path id="path0" d="M100.574,37.394c-2.66.918-3.706,2.986-2.4,4.74.924,1.241,1.849,1.576,5.793,2.1s4.77.851,4.237,1.7c-1.251,2-8.422.839-8.422-1.369,0-.508-.125-.591-.883-.591h-.883v4.541H98.9c.645,0,.883-.11.883-.408s.142-.365.568-.235c3.866,1.173,6.5,1.194,8.8.071,4.508-2.206,2.41-6.048-3.687-6.754-4.217-.489-4.531-.569-4.619-1.178-.287-1.987,7.252-1.476,8.02.544.188.495.422.644,1.008.644h.763V37.414h-.862c-.474,0-.9.111-.946.246s-.746.04-1.683-.252a11.594,11.594,0,0,0-6.566-.014m17.95-.132c-8.061,2.625-5.776,11.56,2.955,11.555,10.425-.006,10.916-11.491.5-11.825a11.515,11.515,0,0,0-3.46.269m96.8.143c-2.8.967-3.825,3.257-2.23,4.987.89.966,1.9,1.287,5.43,1.732,4.378.551,5.584,1.225,4.023,2.247-2.08,1.362-7.538.239-7.983-1.643-.123-.519-.3-.628-1.02-.628h-.872l-.073,2.207-.073,2.207h1.019c.768,0,1.019-.1,1.019-.406,0-.26.138-.352.387-.257,5.355,2.055,11.534.363,11.149-3.052-.25-2.222-1.534-2.923-6.591-3.6-3.954-.532-4.772-.917-3.74-1.764,1.662-1.363,6.886-.665,7.767,1.039a1.08,1.08,0,0,0,1.125.726h.75V37.414h-.862c-.474,0-.9.111-.946.246s-.746.04-1.683-.252a11.563,11.563,0,0,0-6.6,0m27.874-.142c-7.927,2.506-6.2,11.058,2.307,11.454,2.872.134,4.4-.312,5.689-1.658,1.723-1.8,1.934-2.833.581-2.833-.588,0-.883.117-.883.352,0,1.207-2.839,2.534-5.076,2.371a4.1,4.1,0,0,1-.207-8.189c2.364-.242,4.708.8,5.3,2.353.167.439.419.59.988.59h.763V37.414h-.883c-.585,0-.883.118-.883.35,0,.271-.331.214-1.451-.246a10.826,10.826,0,0,0-6.244-.255M130.814,38.3c0,.863.023.883,1.016.883h1.016l-.07,3.721-.07,3.722-.946.078c-.861.071-.946.145-.946.82v.742h6.559V47.52c0-.693-.071-.748-1.072-.82l-1.072-.077-.072-2.853-.071-2.853,4.088,3.673c3.933,3.534,4.129,3.673,5.18,3.673h1.092V39.18h1.009c.985,0,1.009-.021,1.009-.883v-.883H140.9V38.3c0,.863.023.883,1.017.883,1.238,0,1.3.128,1.2,2.615l-.074,1.939-3.5-3.16-3.5-3.16h-5.234V38.3m17.659,0c0,.86.026.883,1,.883,1.643,0,5.31,4.3,5.31,6.233v1.336h-1.009c-.953,0-1.009.042-1.009.757v.757h7.568v-.742c0-.675-.085-.749-.946-.82-2.751-.228,1.359-7.521,4.238-7.521.971,0,1-.023,1-.883v-.883h-6.055v.866c0,.69.109.882.537.946.489.073.428.21-.666,1.509l-1.2,1.428-1.2-1.428c-1.029-1.221-1.134-1.439-.721-1.509.365-.061.482-.291.482-.946v-.866h-7.316V38.3m23.714,0c0,.863.023.883,1.016.883h1.016l-.07,3.721-.07,3.722-.946.078c-.861.071-.946.145-.946.82v.742h6.055v-.757c0-.675-.084-.757-.765-.757-1,0-1.03-.123-.946-3.724l.071-3.065,1.86,4.151,1.86,4.151h2.4l1.86-4.151,1.86-4.151.071,3.065c.084,3.6.052,3.724-.947,3.724-.681,0-.765.082-.765.757v.757h7.064v-.741c0-.652-.1-.751-.82-.82l-.82-.079-.07-3.722-.07-3.721H191.1c.994,0,1.016-.018,1.016-.89V37.4l-3.462.07-3.462.07-1.5,3.316-1.5,3.316-1.405-3.064c-.773-1.685-1.5-3.206-1.61-3.38-.147-.226-1.159-.315-3.6-.315h-3.391V38.3m21.612-.715c-.646.646-.144,1.6.841,1.6h1.009v3.074c0,4.782.868,5.956,4.813,6.516,3.105.44,5.8-.1,7.083-1.43l.844-.87.082-3.645.082-3.645h.99c.964,0,.991-.024.991-.883v-.883h-6.559V38.3c0,.862.024.883,1.009.883h1.009v3.259c0,4.437-.255,4.814-3.255,4.814-2.964,0-3.3-.508-3.3-4.932V39.18h1.009c.985,0,1.009-.021,1.009-.883v-.883h-3.742a24.866,24.866,0,0,0-3.91.168m34.9.715c0,.863.023.883,1.016.883h1.016l-.07,3.721-.07,3.722-.946.078c-.861.071-.946.145-.946.82v.742h7.568v-.742c0-.675-.085-.749-.946-.82l-.946-.078L234.3,42.9l-.07-3.721h1.016c.993,0,1.016-.02,1.016-.883v-.883H228.7V38.3m-105.037.9a4.215,4.215,0,0,1,.534,7.089c-1.139.812-4.092.851-5.141.067-4.334-3.235-.285-9.524,4.607-7.157" transform="translate(-97.614 -36.92)" fill-rule="evenodd"/>
</svg>
