<svg id="_219-south_korea" data-name="219-south korea" xmlns="http://www.w3.org/2000/svg" width="30" height="30" viewBox="0 0 30 30">
  <circle id="Ellipse_384" data-name="Ellipse 384" cx="15" cy="15" r="15" fill="#fff"/>
  <path id="Path_1400" data-name="Path 1400" d="M177.392,172.174c0,1.3-2.336,4.565-5.217,4.565s-5.217-3.261-5.217-4.565a5.217,5.217,0,0,1,10.435,0Z" transform="translate(-157.174 -157.174)" fill="#d80027"/>
  <path id="Path_1401" data-name="Path 1401" d="M177.392,256a5.217,5.217,0,1,1-10.435,0" transform="translate(-157.174 -241)" fill="#0052b4"/>
  <path id="Path_1402" data-name="Path 1402" d="M0,0H1.957V1.3H0Z" transform="translate(20.53 19.612) rotate(-45)"/>
  <path id="Path_1403" data-name="Path 1403" d="M0,0H1.957V1.3H0Z" transform="translate(18.224 21.917) rotate(-45)"/>
  <path id="Path_1404" data-name="Path 1404" d="M0,0H1.957V1.3H0Z" transform="translate(23.296 22.378) rotate(-45)"/>
  <path id="Path_1405" data-name="Path 1405" d="M0,0H1.957V1.3H0Z" transform="translate(20.99 24.684) rotate(-45)"/>
  <path id="Path_1406" data-name="Path 1406" d="M0,0H1.957V1.3H0Z" transform="translate(21.913 20.995) rotate(-45)"/>
  <path id="Path_1407" data-name="Path 1407" d="M0,0H1.957V1.3H0Z" transform="translate(19.608 23.301) rotate(-45)"/>
  <path id="Path_1408" data-name="Path 1408" d="M0,0H5.217V1.3H0Z" transform="translate(23.303 10.391) rotate(-135)"/>
  <path id="Path_1409" data-name="Path 1409" d="M0,0H1.957V1.3H0Z" transform="translate(19.613 9.469) rotate(-135)"/>
  <path id="Path_1410" data-name="Path 1410" d="M0,0H1.957V1.3H0Z" transform="translate(21.919 11.775) rotate(-135)"/>
  <path id="Path_1411" data-name="Path 1411" d="M0,0H1.957V1.3H0Z" transform="translate(22.379 6.702) rotate(-135)"/>
  <path id="Path_1412" data-name="Path 1412" d="M0,0H1.957V1.3H0Z" transform="translate(24.686 9.008) rotate(-135)"/>
  <path id="Path_1413" data-name="Path 1413" d="M0,0H5.217V1.3H0Z" transform="translate(5.318 20.992) rotate(45)"/>
  <path id="Path_1414" data-name="Path 1414" d="M0,0H1.957V1.3H0Z" transform="translate(9.006 21.914) rotate(45)"/>
  <path id="Path_1415" data-name="Path 1415" d="M0,0H1.957V1.3H0Z" transform="translate(6.7 19.609) rotate(45)"/>
  <path id="Path_1416" data-name="Path 1416" d="M0,0H5.217V1.3H0Z" transform="translate(8.084 18.225) rotate(45)"/>
  <path id="Path_1417" data-name="Path 1417" d="M0,0H5.217V1.3H0Z" transform="translate(9.006 5.316) rotate(135)"/>
  <path id="Path_1418" data-name="Path 1418" d="M0,0H5.217V1.3H0Z" transform="translate(10.389 6.699) rotate(135)"/>
  <path id="Path_1419" data-name="Path 1419" d="M0,0H5.217V1.3H0Z" transform="translate(11.774 8.083) rotate(135)"/>
</svg>
