<svg xmlns="http://www.w3.org/2000/svg" width="166.711" height="50" viewBox="0 0 166.711 50">
  <g id="Spotify" transform="translate(-428 -269)">
    <path id="Spotify-Logo.wine" d="M25,0A25,25,0,1,0,50,25,25,25,0,0,0,25,0ZM36.465,36.057a1.557,1.557,0,0,1-2.144.516c-5.87-3.585-13.259-4.4-21.962-2.409a1.559,1.559,0,1,1-.694-3.039c9.523-2.176,17.692-1.239,24.282,2.788a1.558,1.558,0,0,1,.516,2.144Zm3.06-6.807a1.949,1.949,0,0,1-2.681.642c-6.72-4.131-16.964-5.327-24.912-2.914a1.949,1.949,0,1,1-1.133-3.73c9.079-2.755,20.367-1.42,28.084,3.322a1.948,1.948,0,0,1,.642,2.68Zm.263-7.088c-8.058-4.786-21.351-5.226-29.044-2.891A2.338,2.338,0,1,1,9.386,14.8c8.831-2.681,23.512-2.163,32.788,3.344a2.338,2.338,0,1,1-2.385,4.022Z" transform="translate(428 269)" fill="#1ed760"/>
    <path id="Spotify-Logo.wine-2" data-name="Spotify-Logo.wine" d="M203.227,50.093c-4.317-1.029-5.084-1.752-5.084-3.27,0-1.434,1.349-2.4,3.358-2.4a9.811,9.811,0,0,1,5.9,2.242.285.285,0,0,0,.4-.063l2.108-2.971a.284.284,0,0,0-.054-.385,12.754,12.754,0,0,0-8.29-2.872c-4.66,0-7.917,2.8-7.917,6.8,0,4.291,2.809,5.811,7.663,6.984,4.129.951,4.827,1.749,4.827,3.173,0,1.579-1.409,2.561-3.678,2.561a9.928,9.928,0,0,1-6.875-2.839.293.293,0,0,0-.206-.069.28.28,0,0,0-.194.1l-2.364,2.812a.284.284,0,0,0,.027.394,14.088,14.088,0,0,0,9.517,3.648c5.021,0,8.266-2.744,8.266-6.992.009-3.585-2.138-5.57-7.395-6.849Zm18.766-4.257a6.779,6.779,0,0,0-5.436,2.614V46.472a.282.282,0,0,0-.281-.283H212.41a.282.282,0,0,0-.281.283V68.445a.283.283,0,0,0,.281.284h3.866a.283.283,0,0,0,.281-.284V61.51a6.954,6.954,0,0,0,5.436,2.46c4.045,0,8.141-3.114,8.141-9.066s-4.09-9.068-8.138-9.068Zm3.645,9.068c0,3.03-1.866,5.146-4.541,5.146-2.642,0-4.636-2.212-4.636-5.146s1.994-5.146,4.636-5.146,4.541,2.163,4.541,5.146Zm14.99-9.068a9.086,9.086,0,1,0,9.258,9.068,9.114,9.114,0,0,0-9.258-9.068Zm0,14.244a4.917,4.917,0,0,1-4.86-5.178,4.8,4.8,0,0,1,4.8-5.115,4.93,4.93,0,0,1,4.89,5.18,4.812,4.812,0,0,1-4.827,5.113Zm20.381-13.891h-4.254V41.841a.282.282,0,0,0-.281-.283h-3.866a.285.285,0,0,0-.284.283v4.349h-1.857a.282.282,0,0,0-.281.283v3.322a.282.282,0,0,0,.281.283h1.857v8.6c0,3.472,1.729,5.233,5.141,5.233a7.041,7.041,0,0,0,3.618-.9.276.276,0,0,0,.143-.245V59.6a.282.282,0,0,0-.134-.239.274.274,0,0,0-.275-.012,4.88,4.88,0,0,1-2.269.546c-1.239,0-1.794-.564-1.794-1.824V50.079h4.254a.282.282,0,0,0,.281-.283V46.474a.274.274,0,0,0-.278-.283Zm14.819.017v-.534c0-1.571.6-2.272,1.952-2.272a6.532,6.532,0,0,1,2.179.4.282.282,0,0,0,.37-.269V40.276a.28.28,0,0,0-.2-.271,10.588,10.588,0,0,0-3.212-.462c-3.568,0-5.457,2.01-5.457,5.812v.818H269.6a.284.284,0,0,0-.284.283v3.339a.285.285,0,0,0,.284.283h1.857V63.334a.283.283,0,0,0,.284.284h3.863a.282.282,0,0,0,.284-.284V50.078H279.5l5.529,13.256C284.4,64.725,283.785,65,282.943,65a4.437,4.437,0,0,1-2.132-.606.307.307,0,0,0-.224-.021.281.281,0,0,0-.167.152L279.11,67.4a.282.282,0,0,0,.122.367,8.134,8.134,0,0,0,4.126,1.057c2.854,0,4.433-1.331,5.821-4.908l6.705-17.326a.283.283,0,0,0-.26-.386H291.6a.283.283,0,0,0-.269.19l-4.123,11.773L282.7,46.389a.282.282,0,0,0-.263-.182h-6.6Zm-8.592-.017h-3.866a.285.285,0,0,0-.284.283V63.334a.284.284,0,0,0,.284.284h3.866a.284.284,0,0,0,.284-.284V46.474a.283.283,0,0,0-.284-.283Zm-1.911-7.678a2.772,2.772,0,1,0,2.77,2.771A2.772,2.772,0,0,0,265.326,38.511Zm33.86,13.1a2.727,2.727,0,1,1,2.735-2.736,2.71,2.71,0,0,1-2.735,2.736Zm.015-5.184a2.456,2.456,0,1,0,2.433,2.448A2.432,2.432,0,0,0,299.2,46.427Zm.6,2.728.77,1.077h-.651l-.693-.988h-.594v.988h-.543V47.377h1.272c.666,0,1.1.339,1.1.911a.847.847,0,0,1-.66.867Zm-.46-1.288h-.708v.9h.708c.352,0,.564-.173.564-.452S299.7,47.867,299.345,47.867Z" transform="translate(292.791 241.986)" fill="#1ed760"/>
  </g>
</svg>
