<svg id="_183-taiwan" data-name="183-taiwan" xmlns="http://www.w3.org/2000/svg" width="30" height="30" viewBox="0 0 30 30">
  <path id="Path_1389" data-name="Path 1389" d="M30,15A15,15,0,0,1,0,15L15,0A15,15,0,0,1,30,15Z" fill="#d80027"/>
  <path id="Path_1390" data-name="Path 1390" d="M15,15V0A15,15,0,0,0,0,15Z" fill="#0052b4"/>
  <path id="Path_1391" data-name="Path 1391" d="M78.546,81.3l-1.832.862.975,1.774L75.7,83.555l-.252,2.01-1.386-1.478-1.386,1.478-.252-2.01-1.989.381.975-1.774L69.579,81.3l1.832-.862-.976-1.774,1.989.381.252-2.01,1.386,1.478,1.386-1.478.252,2.01,1.989-.381-.976,1.774Z" transform="translate(-65.502 -72.521)" fill="#f0f0f0"/>
  <circle id="Ellipse_378" data-name="Ellipse 378" cx="2.792" cy="2.792" r="2.792" transform="translate(5.768 5.986)" fill="#0052b4"/>
  <path id="Path_1392" data-name="Path 1392" d="M122.191,127.4a1.488,1.488,0,1,1,1.488-1.488A1.489,1.489,0,0,1,122.191,127.4Z" transform="translate(-113.631 -117.138)" fill="#f0f0f0"/>
</svg>
