<svg xmlns="http://www.w3.org/2000/svg" xmlns:xlink="http://www.w3.org/1999/xlink" width="1366" height="3300" viewBox="0 0 1366 3300">
  <defs>
    <clipPath id="clip-path">
      <rect id="ContentLayer" width="1366" height="3300" fill="#fff" stroke="#707070" stroke-width="1" opacity="0"/>
    </clipPath>
  </defs>
  <g id="tracks_iconbg" clip-path="url(#clip-path)">
    <g id="IconBg" transform="translate(-98 304.838)" opacity="0.4">
      <ellipse id="Ellipse_400" data-name="Ellipse 400" cx="53.5" cy="50.578" rx="53.5" ry="50.578" transform="translate(1410.5 181.829)" fill="#8f65ff" opacity="0.5"/>
      <circle id="Ellipse_403" data-name="Ellipse 403" cx="37" cy="37" r="37" transform="translate(61 1383.551)" fill="#8f65ff"/>
      <circle id="Ellipse_408" data-name="Ellipse 408" cx="77.5" cy="77.5" r="77.5" transform="translate(-20 453.551)" fill="#8f65ff"/>
      <circle id="Ellipse_406" data-name="Ellipse 406" cx="26.75" cy="26.75" r="26.75" transform="translate(1383.75 1006.203)" fill="#8f65ff"/>
      <circle id="Ellipse_407" data-name="Ellipse 407" cx="66.875" cy="66.875" r="66.875" transform="translate(1397.125 2317.858)" fill="#8f65ff"/>
      <circle id="Ellipse_442" data-name="Ellipse 442" cx="26.216" cy="26.216" r="26.216" transform="translate(104 2736.858)" fill="#8f65ff"/>
      <circle id="Ellipse_404" data-name="Ellipse 404" cx="147.648" cy="147.648" r="147.648" transform="translate(1374.855 1242.313)" fill="#8f65ff" opacity="0.3"/>
      <circle id="Ellipse_441" data-name="Ellipse 441" cx="176.148" cy="176.148" r="176.148" transform="translate(-41.147 1775.312)" fill="#8f65ff" opacity="0.3"/>
      <g id="_044-music" data-name="044-music" transform="matrix(0.848, 0.53, -0.53, 0.848, 73.872, 856.664)">
        <path id="Path_32" data-name="Path 32" d="M194.332,48.116a8.681,8.681,0,0,0-14.55,9.474c37.8,58.055-3.726,136.433-74.09,136.433a88.33,88.33,0,0,1,0-176.661,8.681,8.681,0,0,0,0-17.363,105.679,105.679,0,1,0,88.639,48.116Z" transform="translate(0 0)" fill="#8f65ff"/>
        <path id="Path_33" data-name="Path 33" d="M223.585,75.848H205.809a35.139,35.139,0,1,0,35.139,35.139V29.938A89.018,89.018,0,0,1,263.753,44.32a8.681,8.681,0,0,0,11.395-13.1,106.227,106.227,0,0,0-40.2-21.858,8.683,8.683,0,0,0-10.735,5.957C223.317,18.434,223.585,12.139,223.585,75.848Zm0,35.139a17.776,17.776,0,1,1-17.776-17.776h17.776Z" transform="translate(-100.116 -5.294)" fill="#8f65ff"/>
      </g>
      <g id="_044-music-2" data-name="044-music" transform="matrix(0.848, 0.53, -0.53, 0.848, 1410.772, 2746.479)">
        <path id="Path_32-2" data-name="Path 32" d="M115.7,28.647a5.169,5.169,0,0,0-8.663,5.641c22.505,34.564-2.219,81.228-44.111,81.228a52.589,52.589,0,0,1,0-105.178A5.169,5.169,0,0,0,62.926,0,62.918,62.918,0,1,0,115.7,28.647Z" transform="translate(0 0)" fill="#8f65ff"/>
        <path id="Path_33-2" data-name="Path 33" d="M202.174,48.81H191.59a20.92,20.92,0,1,0,20.921,20.92V21.476a53,53,0,0,1,13.578,8.563,5.169,5.169,0,0,0,6.784-7.8A63.244,63.244,0,0,0,208.937,9.226a5.17,5.17,0,0,0-6.391,3.547C202.014,14.627,202.174,10.879,202.174,48.81Zm0,20.92A10.583,10.583,0,1,1,191.59,59.147h10.583Z" transform="translate(-128.664 -6.804)" fill="#8f65ff"/>
      </g>
      <g id="_044-music-3" data-name="044-music" transform="matrix(0.848, 0.53, -0.53, 0.848, 120.555, 2296.746)">
        <path id="Path_32-3" data-name="Path 32" d="M103.318,25.581a4.615,4.615,0,0,0-7.736,5.037c20.1,30.865-1.981,72.536-39.39,72.536a46.961,46.961,0,0,1,0-93.923,4.615,4.615,0,0,0,0-9.231,56.185,56.185,0,1,0,47.126,25.581Z" transform="translate(0 0)" fill="#8f65ff"/>
        <path id="Path_33-3" data-name="Path 33" d="M198.8,44.552h-9.451a18.682,18.682,0,1,0,18.682,18.682V20.143a47.328,47.328,0,0,1,12.125,7.647,4.616,4.616,0,0,0,6.058-6.965A56.476,56.476,0,0,0,204.842,9.2a4.616,4.616,0,0,0-5.707,3.167C198.66,14.028,198.8,10.681,198.8,44.552Zm0,18.682a9.451,9.451,0,1,1-9.451-9.451H198.8Z" transform="translate(-133.16 -7.042)" fill="#8f65ff"/>
      </g>
      <g id="_044-music-4" data-name="044-music" transform="translate(1348.105 673.81) rotate(-30)">
        <path id="Path_32-4" data-name="Path 32" d="M119.988,29.708A5.36,5.36,0,0,0,111,35.558C134.344,71.4,108.7,119.8,65.258,119.8a54.538,54.538,0,0,1,0-109.076,5.36,5.36,0,0,0,0-10.72,65.25,65.25,0,1,0,54.729,29.708Z" transform="translate(0 0)" fill="#8f65ff"/>
        <path id="Path_33-4" data-name="Path 33" d="M203.341,50.284H192.366a21.7,21.7,0,1,0,21.7,21.7V21.937a54.963,54.963,0,0,1,14.081,8.88,5.36,5.36,0,0,0,7.036-8.089,65.588,65.588,0,0,0-24.824-13.5,5.361,5.361,0,0,0-6.628,3.678C203.176,14.835,203.341,10.948,203.341,50.284Zm0,21.7A10.976,10.976,0,1,1,192.366,61h10.976Z" transform="translate(-127.107 -6.722)" fill="#8f65ff"/>
      </g>
      <g id="_044-music-5" data-name="044-music" transform="matrix(0.588, -0.809, 0.809, 0.588, 1257.422, 2040.79)" opacity="0.461">
        <path id="Path_32-5" data-name="Path 32" d="M236.713,58.609a10.575,10.575,0,0,0-17.723,11.54c46.045,70.716-4.539,166.187-90.248,166.187a107.594,107.594,0,0,1,0-215.187,10.575,10.575,0,0,0,0-21.149,128.726,128.726,0,1,0,107.97,58.609Z" transform="translate(0 0)" fill="#8f65ff"/>
        <path id="Path_33-5" data-name="Path 33" d="M235.125,90.421H213.472a42.8,42.8,0,1,0,42.8,42.8V34.5a108.432,108.432,0,0,1,27.78,17.52,10.575,10.575,0,0,0,13.88-15.958A129.393,129.393,0,0,0,248.961,9.435a10.577,10.577,0,0,0-13.076,7.257C234.8,20.486,235.125,12.818,235.125,90.421Zm0,42.8a21.653,21.653,0,1,1-21.653-21.653h21.653Z" transform="translate(-84.729 -4.481)" fill="#8f65ff"/>
      </g>
    </g>
  </g>
</svg>
