<svg xmlns="http://www.w3.org/2000/svg" xmlns:xlink="http://www.w3.org/1999/xlink" width="110" height="25" viewBox="0 0 110 25">
  <defs>
    <clipPath id="clip-Logo">
      <rect width="110" height="25"/>
    </clipPath>
  </defs>
  <g id="Logo" clip-path="url(#clip-Logo)">
    <g id="UniversalMusic" transform="translate(31 1)" style="isolation: isolate">
      <path id="Path_827" data-name="Path 827" d="M287.036,217.939c.083-.083.262,0,.441,0s.179.262.441.179.262.262.717.262c.358,0-.083.179-.083.179s-.262-.083-.358,0c-.083,0,0,0-.083-.179-.179-.179-.179,0-.537-.262-.455-.262-.62,0-.537-.179m-2.949.413c-.262-.358-.083-.8.179-1.337a1.046,1.046,0,0,1,1.158-.262c.537-.358.62,0,1.061-.179.62-.262.262.717.882.882.262-.62-.537-1.061-.083-1.419.358-.179.62-.262.717-.537.262-.441.358-.717.441-.8a.347.347,0,0,0,.262-.441.906.906,0,0,0,.717-.179c-.179-.083-.538-.179-.441-.441s.882.262,1.061-.179c-.441-.179-.882-.62-1.158-.717-.179.179-.358.083-.62-.083-.441-.358-.441,0-.717-.262-.179.441.179.441.262.537.262.262-.262-.262-.179.441,0,.179-.262.262-.441-.179-.262-.179-1.061-.179-1.24-.358a2.775,2.775,0,0,1,2.756-.882,6.986,6.986,0,0,0-5.512.358c-.358.179-.179.441-.358.441-.262.083-.537.882-.537.882s.179.083-.358.717a2.97,2.97,0,0,0-.537,1.337,2.965,2.965,0,0,1,.262,1.158c0,.441-.083.083.179.441.083.179.262.882.358.62.179-.537-.262-.978-.179-1.516,0,.083.179-.179.179,0a5.384,5.384,0,0,0,.8,1.86s-.262.262,0,.262l-.083.179a.737.737,0,0,1,.358.083c.179.083.262.262.441.262h2.219a4.433,4.433,0,0,1,.262-.8c.083-.083-.262,0-.358-.083-.358-.083-.358.083-.441.179-.083.179-.083.358-.262.441a2.379,2.379,0,0,1-.717.083c-.1,0-.331-.51-.331-.51m10.528,7.29c-.083-.083,0-.262,0-.262H288.3l.717.62a.7.7,0,0,1,.441.441c.179.537-.083.083-.083.978,0,.8-.179.62-.179.62a3.543,3.543,0,0,1-.538,1.516c-.358.262-.179.537-.179.537s-.083.083-.179.717c-.083.179.179.537.441.441.179-.083-.441-.083.262-.441.262-.083.083-.358.083-.358s.441,0,.717-.717c.358.179.179-.083,1.061-.262.179-.083.262-.083.262-.358,0-.179.262,0,1.158-.882.717-.717.441-.882.882-1.158.537-.179.537.083.717-.083a3.806,3.806,0,0,0,.441-.8l.083-.179c.028-.014.289-.289.207-.372m-4.424-6.766-.179.083v-.179A1.138,1.138,0,0,0,290.192,218.876Zm-.51-.11c-.262.083-.441,0-.717.179l-.179-.083c.179-.179-.083-.358.262-.358.193,0,.372.179.634.262" transform="translate(-262.741 -210.98)"/>
      <path id="Path_828" data-name="Path 828" d="M159.34,215.393c1.419-4.534,4.878-7.993,10.749-7.993a11.14,11.14,0,0,1,10.749,8.075,11.546,11.546,0,0,0-21.5-.083m21.484,6.932a11.288,11.288,0,0,1-10.749,8.076,10.852,10.852,0,0,1-10.652-7.993,11.531,11.531,0,0,0,21.4-.083M150.7,216.5h-1.778l.262.358v2.315c0,.537-.358.717-.882.717s-.882-.179-.882-.717v-2.315l.358-.358H146l.262.358v2.315c0,1.158.62,1.6,2.136,1.6s2.04-.441,2.04-1.6v-2.4l.262-.276m6.119,0H155.3l.262.358v2.136l-2.136-2.481h-1.337l.262.358v3.555l-.262.358h1.516l-.262-.358v-2.136l2.315,2.481h.978v-3.914Zm3.431,4.189-.262-.358v-3.555l.262-.262h-1.778l.262.358v3.555l-.262.262Zm5.857-4.189H164.59l.262.358-1.061,2.315-.978-2.315.262-.358H161.3l1.957,4.176h.882l1.971-4.176Zm4.989,4.189v-1.158l-.358.262H168.6v-.8h1.337l.262.262v-1.337l-.262.262H168.6V217.4h2.136l.358.262v-1.158h-3.914l.262.358v3.555l-.262.262Zm4.561-2.825c0,.262-.262.537-.717.537h-.8v-1.061h.978c.276.069.537.165.537.524m1.419,2.839-1.158-1.681a1.237,1.237,0,0,0,.978-1.24c0-.717-.441-1.24-1.6-1.24h-2.577l.262.358v3.542l-.262.358H174.5l-.262-.358v-1.158h.537l.8,1.158-.262.358h1.778m5.319-1.337c0-.62-.537-1.061-1.337-1.337-.441-.083-1.158-.262-1.158-.537,0-.179.179-.262.537-.262a5.29,5.29,0,0,1,1.778.441v-1.419l-.358.358a3.718,3.718,0,0,0-1.419-.358c-1.419,0-1.86.62-1.86,1.24,0,.8.537,1.158,1.337,1.419.62.179,1.158.262,1.158.537s-.358.358-.537.358a4.145,4.145,0,0,1-1.957-.62v1.516l.358-.358a4.291,4.291,0,0,0,1.681.358c1.24,0,1.778-.537,1.778-1.337m4.244-.276h-1.419l.717-1.516Zm2.04,1.5-2.136-4.176h-1.419l.179.358-1.86,3.914h1.516l-.262-.358.179-.441h1.957l.179.441-.083.262Zm4.934,0v-1.158l-.358.262h-2.04v-3.018l.262-.358h-1.778l.358.358v3.555l-.262.358Zm-.882-3.28a.8.8,0,0,1,.8-.8.875.875,0,0,1,.882.8.822.822,0,0,1-.882.8.744.744,0,0,1-.8-.8m.083,0a.8.8,0,0,0,.8.8h0a.8.8,0,0,0,.8-.8h0a.8.8,0,0,0-.8-.8h0a.818.818,0,0,0-.8.8h0" transform="translate(-146 -207.4)"/>
    </g>
  </g>
</svg>
