<svg xmlns="http://www.w3.org/2000/svg" xmlns:xlink="http://www.w3.org/1999/xlink" width="110" height="25" viewBox="0 0 110 25">
  <defs>
    <clipPath id="clip-Logo">
      <rect width="110" height="25"/>
    </clipPath>
  </defs>
  <g id="Logo" clip-path="url(#clip-Logo)">
    <g id="WarnerMusic" transform="translate(6 2)" style="isolation: isolate">
      <path id="path5326" d="M58.065,108.7a3.949,3.949,0,0,0-1.386-.3c-.56,0-1.325.108-1.325.682,0,.64,1.171.889,1.818,1.1.931.309,1.784.584,1.784,1.627,0,1.243-1.157,1.672-2.3,1.672a4.231,4.231,0,0,1-2.1-.508.421.421,0,0,1-.2-.386.393.393,0,0,1,.4-.414.793.793,0,0,1,.293.085,3.52,3.52,0,0,0,1.6.374c.577,0,1.385-.145,1.385-.789,0-.675-1.032-.763-2.084-1.14-.759-.274-1.517-.6-1.517-1.621,0-1.176,1.15-1.527,2.221-1.527a5.044,5.044,0,0,1,1.772.372.424.424,0,0,1,.267.382.4.4,0,0,1-.4.426.7.7,0,0,1-.231-.038Zm9.924,3.686a2.928,2.928,0,1,1-2.255-4.828,2.748,2.748,0,0,1,1.921.746.451.451,0,0,1,.145.317.423.423,0,0,1-.1.275.391.391,0,0,1-.3.145.461.461,0,0,1-.284-.1,1.946,1.946,0,0,0-1.38-.531,2.118,2.118,0,1,0,1.647,3.4.383.383,0,0,1,.291-.129.415.415,0,0,1,.292.111.387.387,0,0,1,.129.292A.489.489,0,0,1,67.989,112.381Zm-7.05,1.055a.461.461,0,0,1-.464-.463v-4.932a.461.461,0,0,1,.464-.463.453.453,0,0,1,.454.463v4.932A.453.453,0,0,1,60.94,113.436Zm-10.322.043a2.251,2.251,0,0,1-2.383-2.418v-3.019a.453.453,0,0,1,.454-.463.461.461,0,0,1,.464.463v3.136a1.461,1.461,0,0,0,2.923,0v-3.136a.463.463,0,0,1,.926,0v3.019A2.251,2.251,0,0,1,50.618,113.479Zm-4.374-.043a.425.425,0,0,1-.429-.429v-3.173c-1.03,2.084-1.6,3.371-1.6,3.371a.413.413,0,0,1-.746-.01l-1.6-3.353V113a.439.439,0,0,1-.437.437A.432.432,0,0,1,41,113v-4.992a.424.424,0,0,1,.429-.428.449.449,0,0,1,.4.274l2.016,4.219,2-4.228a.429.429,0,0,1,.394-.265.439.439,0,0,1,.437.436v4.992A.432.432,0,0,1,46.244,113.436ZM35.059,108.5h-1.9v1.681h1.9a.828.828,0,0,0,.9-.831A.838.838,0,0,0,35.059,108.5Zm.781,2.316s.035.06.969,1.981a.367.367,0,0,1,.043.189.444.444,0,0,1-.249.411.393.393,0,0,1-.2.043.442.442,0,0,1-.4-.257l-1.07-2.213H33.156v2.016a.459.459,0,0,1-.918,0V108.11a.457.457,0,0,1,.454-.454h2.247c1.073,0,1.939.514,1.939,1.664A1.5,1.5,0,0,1,35.84,110.812Zm-5.447,2.555h-3.31a.461.461,0,0,1-.464-.463V108.11a.454.454,0,0,1,.464-.454h3.181a.426.426,0,0,1,.438.419.44.44,0,0,1-.438.437H27.538v1.51h1.527a.429.429,0,1,1,0,.858H27.538v1.629h2.856a.429.429,0,1,1,0,.858Zm-6.02.068a.391.391,0,0,1-.335-.162l-3.019-4.065v3.8a.431.431,0,0,1-.436.429.426.426,0,0,1-.43-.429v-4.992a.435.435,0,0,1,.447-.436.419.419,0,0,1,.326.162s1.7,2.358,3.019,4.065v-3.791a.431.431,0,0,1,.429-.436.439.439,0,0,1,.437.436v4.992A.432.432,0,0,1,24.373,113.436ZM16.7,108.5H14.8v1.681h1.9a.829.829,0,0,0,.9-.831A.838.838,0,0,0,16.7,108.5Zm.781,2.316s.034.06.968,1.981a.355.355,0,0,1,.043.189.442.442,0,0,1-.249.411.386.386,0,0,1-.2.043.441.441,0,0,1-.4-.257l-1.072-2.213H14.8v2.016a.458.458,0,0,1-.917,0V108.11a.457.457,0,0,1,.454-.454h2.247c1.072,0,1.939.514,1.939,1.664a1.5,1.5,0,0,1-1.038,1.492Zm-7.555-1.8-.969,2.17H10.9Zm2.435,4.381a.45.45,0,0,1-.18.043.428.428,0,0,1-.394-.257l-.541-1.217H8.609l-.541,1.217a.44.44,0,0,1-.4.257.421.421,0,0,1-.172-.034.436.436,0,0,1-.249-.4.5.5,0,0,1,.035-.189l2.255-4.982a.448.448,0,0,1,.4-.257.431.431,0,0,1,.394.257l2.256,4.982a.456.456,0,0,1,.034.18A.417.417,0,0,1,12.365,113.393Zm-5.478-5.239L5.3,113.127a.449.449,0,0,1-.429.309.422.422,0,0,1-.4-.3l-1.012-3.628-1.021,3.628a.411.411,0,0,1-.394.3.451.451,0,0,1-.429-.309l-1.6-4.974a.605.605,0,0,1-.017-.12.433.433,0,0,1,.3-.429.345.345,0,0,1,.129-.025.437.437,0,0,1,.419.309l1.175,3.679,1.038-3.688a.41.41,0,0,1,.789,0l1.03,3.688,1.175-3.679a.438.438,0,0,1,.42-.309.359.359,0,0,1,.129.025.44.44,0,0,1,.309.42A.334.334,0,0,1,6.887,108.154Z" transform="translate(29.12 -99.065)" fill="#231f20"/>
      <g id="g4144">
        <rect id="rect4142" width="16.437" height="12.378" transform="translate(3.367 4.937)" fill="#fff"/>
        <path id="path5322" d="M119.219,11.463a2.083,2.083,0,0,1-1.946-1.267l-.664-1.608a2.077,2.077,0,0,1,3.83-1.607L121.1,8.59A2.081,2.081,0,0,1,119.219,11.463Zm-8.881,4.972a2.084,2.084,0,0,1-1.946-1.267l-2.718-6.579A2.077,2.077,0,0,1,109.5,6.982l2.718,6.579A2.081,2.081,0,0,1,110.338,16.435Zm5.468,0a2.081,2.081,0,0,1-1.945-1.267l-2.719-6.579a2.077,2.077,0,0,1,3.831-1.607l2.718,6.579A2.081,2.081,0,0,1,115.805,16.435ZM113.058,21c-5.468,0-8.31-1.206-10.009-4.047-.958-1.636-1.3-4.568-1.3-6.453s.339-4.815,1.3-6.452C104.748,1.206,107.59,0,113.058,0s8.309,1.206,10.008,4.047c.958,1.637,1.3,4.569,1.3,6.452s-.34,4.817-1.3,6.453C121.367,19.794,118.525,21,113.058,21Z" transform="translate(-101.752 0)" fill="#0a89e6" fill-rule="evenodd"/>
      </g>
    </g>
  </g>
</svg>
