<svg xmlns="http://www.w3.org/2000/svg" width="60" height="59.984" viewBox="0 0 60 59.984">
  <g id="worldwide" transform="translate(0 -0.067)">
    <g id="Group_1451" data-name="Group 1451" transform="translate(2.334 2.239)">
      <path id="Path_1490" data-name="Path 1490" d="M301.087,33.069l-3.1,2.069L292.811,34.1l-3.1-1.035L285.569,34.1l-3.1-1.035,2.069-4.138h4.138l4.056-2.028A29.631,29.631,0,0,1,301.087,33.069Z" transform="translate(-251.697 -25.93)" fill="#03aa6f"/>
      <path id="Path_1491" data-name="Path 1491" d="M45.511,21.6l-1.035,3.1-3.1,1.035-3.1,5.173-5.173,3.1-7.242,1.035v3.1l2.069,2.069v4.138L24.82,42.3l-3.1-2.069-1.8-5.411A29.983,29.983,0,0,1,36.365,18.6L39.3,20.57Z" transform="translate(-19.916 -18.604)" fill="#03aa6f"/>
      <path id="Path_1492" data-name="Path 1492" d="M92.316,221.252l-1.035,5.173-4.138,4.138v3.1L83,236.77v5.173l-3.1-1.035-2.069-5.173V225.39l-5.173-1.035-2.069-4.138v-3.1l2.069-2.069,3.1-3.1,2.069,4.138h7.242l3.1,5.173Z" transform="translate(-64.652 -189.284)" fill="#03aa6f"/>
      <path id="Path_1493" data-name="Path 1493" d="M297.744,116.723a29.973,29.973,0,0,1-1.655,31.937l-2.793-2.793v-4.138l-2.069-4.138-2.069-4.138v-4.138l-3.1-2.069-4.138,1.035-7.242-3.1-1.035-7.242,3.1-3.1h6.207l2.069,3.1,6.207,1.035,6.207-2.069Z" transform="translate(-243.906 -103.554)" fill="#03aa6f"/>
    </g>
    <path id="Path_1494" data-name="Path 1494" d="M36.205,10.412l4.138-1.035,3.1,1.035,5.173,1.035,3.1-2.069a29.546,29.546,0,0,1,4.449,6.031l-.31.176-6.207,2.069-6.207-1.035-2.069-3.1H35.171l-3.1,3.1L33.1,23.861l7.242,3.1,4.138-1.035L47.586,28v4.138l2.069,4.138,2.069,4.138v4.138l2.793,2.793A30,30,0,0,1,2.334,18.45l1.8,5.411,3.1,2.069L10.341,28,8.272,30.068v3.1l2.069,4.138,5.173,1.035V48.691l2.069,5.173,3.1,1.035V49.725l4.138-3.1v-3.1l4.138-4.138L30,34.207H25.86l-3.1-5.173H15.514L13.445,24.9l-3.1,3.1V23.861L8.272,21.792v-3.1l7.242-1.035,5.173-3.1,3.1-5.173,3.1-1.035,1.035-3.1L21.722,4.2,18.783,2.239a30,30,0,0,1,24.581.973L39.309,5.239H35.171L33.1,9.377Z" transform="translate(0)" fill="#86daf1"/>
  </g>
</svg>
