<svg id="_055-india" data-name="055-india" xmlns="http://www.w3.org/2000/svg" width="30" height="30" viewBox="0 0 30 30">
  <circle id="Ellipse_381" data-name="Ellipse 381" cx="15" cy="15" r="15" fill="#f0f0f0"/>
  <path id="Path_1397" data-name="Path 1397" d="M38.914,0A15,15,0,0,0,25.4,8.478H52.425A15,15,0,0,0,38.914,0Z" transform="translate(-23.914)" fill="#ff9811"/>
  <path id="Path_1398" data-name="Path 1398" d="M38.914,375.782A15,15,0,0,0,52.425,367.3H25.4A15,15,0,0,0,38.914,375.782Z" transform="translate(-23.914 -345.782)" fill="#6da544"/>
  <circle id="Ellipse_382" data-name="Ellipse 382" cx="5.217" cy="5.217" r="5.217" transform="translate(9.783 9.783)" fill="#0052b4"/>
  <circle id="Ellipse_383" data-name="Ellipse 383" cx="3.261" cy="3.261" r="3.261" transform="translate(11.739 11.739)" fill="#f0f0f0"/>
  <path id="Path_1399" data-name="Path 1399" d="M200.012,187.326l1.006,2.282,2.479-.27-1.473,2.012,1.473,2.012-2.479-.27-1.006,2.282-1.006-2.282-2.479.27L198,191.35l-1.473-2.012,2.479.27Z" transform="translate(-185.012 -176.35)" fill="#0052b4"/>
</svg>
