<svg id="_226-north_korea" data-name="226-north korea" xmlns="http://www.w3.org/2000/svg" width="30" height="30" viewBox="0 0 30 30">
  <circle id="Ellipse_416" data-name="Ellipse 416" cx="15" cy="15" r="15" fill="#f0f0f0"/>
  <g id="Group_1502" data-name="Group 1502" transform="translate(3.629)">
    <path id="Path_1538" data-name="Path 1538" d="M73.31,0A14.965,14.965,0,0,0,61.939,5.217H84.68A14.965,14.965,0,0,0,73.31,0Z" transform="translate(-61.939)" fill="#0052b4"/>
    <path id="Path_1539" data-name="Path 1539" d="M84.681,422.957H61.939a15,15,0,0,0,22.742,0Z" transform="translate(-61.939 -398.174)" fill="#0052b4"/>
  </g>
  <path id="Path_1540" data-name="Path 1540" d="M27.8,122.435H2.2a15.011,15.011,0,0,0,0,15.652H27.8a15.011,15.011,0,0,0,0-15.652Z" transform="translate(0 -115.261)" fill="#d80027"/>
  <circle id="Ellipse_417" data-name="Ellipse 417" cx="5.772" cy="5.772" r="5.772" transform="translate(3.457 9.228)" fill="#f0f0f0"/>
  <path id="Path_1541" data-name="Path 1541" d="M69.3,157.5l1.295,3.986h4.2l-3.4,2.463,1.305,4-3.4-2.475-3.4,2.47,1.3-3.993-3.394-2.463H68Z" transform="translate(-60.07 -148.268)" fill="#d80027"/>
</svg>
