<svg id="_187-philippines" data-name="187-philippines" xmlns="http://www.w3.org/2000/svg" width="30" height="30" viewBox="0 0 30 30">
  <circle id="Ellipse_414" data-name="Ellipse 414" cx="15" cy="15" r="15" fill="#f0f0f0"/>
  <path id="Path_1525" data-name="Path 1525" d="M85.587,0V15L74.98,25.607A15,15,0,0,0,100.587,15C100.587,6.716,85.587,0,85.587,0Z" transform="translate(-70.587)" fill="#d80027"/>
  <path id="Path_1526" data-name="Path 1526" d="M85.587,0A14.953,14.953,0,0,0,74.98,4.393L85.587,15h15A15,15,0,0,0,85.587,0Z" transform="translate(-70.587)" fill="#0052b4"/>
  <g id="Group_1499" data-name="Group 1499" transform="translate(1.304 5.87)">
    <path id="Path_1527" data-name="Path 1527" d="M31.228,187.478l-1.832-.862.976-1.774-1.989.381-.252-2.01-1.386,1.478-1.386-1.478-.252,2.01-1.989-.381.976,1.774-1.832.862,1.832.862-.976,1.774,1.989-.381.252,2.01,1.386-1.478,1.386,1.478.252-2.01,1.989.381L29.4,188.34Z" transform="translate(-22.261 -178.347)" fill="#ffda44"/>
    <path id="Path_1528" data-name="Path 1528" d="M52.1,100.174l.61.852,1-.316-.622.843.61.852-.994-.331-.622.843.008-1.048-.994-.331,1-.316Z" transform="translate(-49.404 -100.174)" fill="#ffda44"/>
    <path id="Path_1529" data-name="Path 1529" d="M52.1,365.015l.61.852,1-.316-.622.843.61.852-.994-.331-.622.843.008-1.048-.994-.331,1-.316Z" transform="translate(-49.404 -349.497)" fill="#ffda44"/>
    <path id="Path_1530" data-name="Path 1530" d="M190.825,232.6l-.61.852-1-.316.622.843-.61.852.994-.331.622.843-.008-1.048.994-.331-1-.316Z" transform="translate(-179.434 -224.836)" fill="#ffda44"/>
  </g>
</svg>
