<svg id="_204-saudi_arabia" data-name="204-saudi arabia" xmlns="http://www.w3.org/2000/svg" width="30" height="30" viewBox="0 0 30 30">
  <circle id="Ellipse_375" data-name="Ellipse 375" cx="15" cy="15" r="15" fill="#6da544"/>
  <g id="Group_1362" data-name="Group 1362" transform="translate(6.359 8.478)">
    <path id="Path_1375" data-name="Path 1375" d="M144.7,306.087a1.957,1.957,0,0,0,1.956,1.957h5.87a1.63,1.63,0,0,0,1.63,1.63h1.957a1.63,1.63,0,0,0,1.63-1.63v-1.957Z" transform="translate(-142.576 -296.63)" fill="#f0f0f0"/>
    <path id="Path_1376" data-name="Path 1376" d="M349.13,144.7v4.565a1.306,1.306,0,0,1-1.3,1.3v1.956a3.265,3.265,0,0,0,3.261-3.261V144.7Z" transform="translate(-333.804 -144.696)" fill="#f0f0f0"/>
    <path id="Path_1377" data-name="Path 1377" d="M109.826,149.261a1.306,1.306,0,0,1-1.3,1.3v1.956a3.265,3.265,0,0,0,3.261-3.261V144.7h-1.956Z" transform="translate(-108.522 -144.696)" fill="#f0f0f0"/>
    <path id="Path_1378" data-name="Path 1378" d="M320,144.7h1.957v4.565H320Z" transform="translate(-307.609 -144.696)" fill="#f0f0f0"/>
    <path id="Path_1379" data-name="Path 1379" d="M186.087,147.3a.326.326,0,1,1-.652,0v-2.609h-1.957V147.3a.326.326,0,1,1-.652,0v-2.609H180.87V147.3a2.281,2.281,0,0,0,3.587,1.872,2.263,2.263,0,0,0,1.592.392,1.305,1.305,0,0,1-1.266,1v1.956a3.265,3.265,0,0,0,3.261-3.261v-4.565h-1.956V147.3Z" transform="translate(-176.631 -144.695)" fill="#f0f0f0"/>
    <path id="Path_1380" data-name="Path 1380" d="M180.87,244.87H183.8v1.956H180.87Z" transform="translate(-176.631 -239)" fill="#f0f0f0"/>
  </g>
</svg>
