<svg id="_132-singapore" data-name="132-singapore" xmlns="http://www.w3.org/2000/svg" width="30" height="30" viewBox="0 0 30 30">
  <circle id="Ellipse_412" data-name="Ellipse 412" cx="15" cy="15" r="15" fill="#f0f0f0"/>
  <path id="Path_1517" data-name="Path 1517" d="M0,15a15,15,0,1,1,30,0" fill="#d80027"/>
  <g id="Group_1498" data-name="Group 1498" transform="translate(7.174 3.261)">
    <path id="Path_1518" data-name="Path 1518" d="M124.391,60.217a4.566,4.566,0,0,1,3.587-4.459,4.565,4.565,0,1,0,0,8.918A4.566,4.566,0,0,1,124.391,60.217Z" transform="translate(-122.434 -55.652)" fill="#f0f0f0"/>
    <path id="Path_1519" data-name="Path 1519" d="M233.965,61.217l.324,1h1.048l-.848.616.324,1-.848-.616-.848.616.324-1-.848-.616h1.048Z" transform="translate(-226.139 -60.891)" fill="#f0f0f0"/>
    <path id="Path_1520" data-name="Path 1520" d="M190.589,94.608l.324,1h1.048l-.848.616.324,1-.848-.616-.848.616.324-1-.848-.616h1.048Z" transform="translate(-185.304 -92.325)" fill="#f0f0f0"/>
    <path id="Path_1521" data-name="Path 1521" d="M277.341,94.608l.324,1h1.048l-.848.616.324,1-.848-.616-.848.616.324-1-.848-.616h1.048Z" transform="translate(-266.974 -92.325)" fill="#f0f0f0"/>
    <path id="Path_1522" data-name="Path 1522" d="M260.646,144.7l.324,1h1.048l-.848.616.324,1-.848-.616-.848.616.324-1-.848-.616h1.048Z" transform="translate(-251.257 -139.478)" fill="#f0f0f0"/>
    <path id="Path_1523" data-name="Path 1523" d="M207.285,144.7l.324,1h1.048l-.848.616.324,1-.848-.616-.848.616.324-1-.848-.616h1.048Z" transform="translate(-201.022 -139.478)" fill="#f0f0f0"/>
  </g>
</svg>
